<svg width="562" height="80" viewBox="0 0 562 80" fill="none" xmlns="http://www.w3.org/2000/svg">
    <path d="M60.6 28C60.3 25.7 59.6 23.5 58.6 21.5C57.9 20.1 57 18.8 55.8 17.8C54.3 16.5 52.4 15.8 50.4 15.8C49.5 15.8 48.6 15.9 47.7 16.2L50.3 10.6L50.6 9.9L50 9.6L44.9 6L44.7 5.8H40.4C39.5 5.6 38.6 5.2 37.9 4.6C35.5 2.7 32.6 1.7 29.5 1.7C26.4 1.6 23.4 2.6 21 4.7L12.2 13.3L12 13.5L6.9 18.5C6.00024 19.3829 5.28623 20.4369 4.8 21.6C3.8 23.7 3.1 25.8 2.8 28.1C1.8 33.4 2 38.8 3.3 44C4.8 49.5 7.4 54.6 10.9 59.1C15.8 65.3 22 70.5 29 74.5L31.2 75.8L31.7 76.1L32.2 75.8L34.4 74.5C41.4 70.5 47.5 65.2 52.6 59C56.1 54.5 58.7 49.4 60.2 43.9C61.3 38.7 61.5 33.3 60.6 28Z" fill="white"/>
    <path d="M27.4 22.2H19.5L18.8 34.1C19.2 34.2 19.7 34.3 20.1 34.5L27.4 22.2ZM21.3 49.2L21.2 50.2L21.6 50.4C22.4 50.7 23.2 50.9 24.1 50.8C25 50.8 25.9 50.7 26.7 50.3V49.3C25.9 49.7 25 49.9 24.1 49.9C23.3 49.9 22.4 49.7 21.6 49.4L21.3 49.2ZM21.6 52.9L21.3 52.7H21.2V53.7L21.6 53.9C22.4 54.2 23.2 54.4 24.1 54.3C24.8 54.3 25.5 54.2 26.1 54V53.1C25.5 53.3 24.8 53.4 24.1 53.4C23.2 53.5 22.3 53.3 21.6 52.9ZM21.6 56.4L21.3 56.2H21.2V57.2L21.6 57.4C22.4 57.7 23.2 57.8 24 57.8C24.4 57.8 24.8 57.8 25.2 57.7V56.8C24.8 56.9 24.4 56.9 24 56.9C23.2 57 22.3 56.8 21.6 56.4ZM30.5 5.8C31.2 5.9 31.8 6.2 32.4 6.5C33 6.8 33.6 7.2 34.1 7.6C34.9 8.3 35.8 8.9 36.7 9.4V7.9L34.7 6.7C34.1 6.3 33.4 6 32.8 5.7C32.1295 5.40837 31.4234 5.20663 30.7 5.1C30 5 29.3 5 28.5 5.1H28.4V5.7H28.5C29.1 5.6 29.8 5.7 30.5 5.8ZM59.7 28.2C59.4 26 58.7 23.9 57.8 21.9C57.2 20.6 56.3 19.4 55.2 18.5C53.9 17.4 52.1 16.7 50.4 16.7C48.1 16.7 45.9 17.6 44.3 19.2L41.7 16.4L42.1 15.5H45.7L45.3 16.4H46.7L49.5 10.3L44.4 6.7H40.4C39.3 6.5 38.2 6 37.4 5.3C35.2 3.5 32.4 2.5 29.5 2.5C26.6 2.3 23.8 3.3 21.6 5.2L7.40001 19.1C6.59085 19.9229 5.91595 20.8677 5.40001 21.9C4.50001 23.9 3.80001 26 3.50001 28.2C2.50001 33.3 2.70001 38.6 4.00001 43.7C5.50001 49.1 8.00001 54.1 11.5 58.5C16.5 64.7 22.6 69.9 29.5 73.8L31.7 75.1L33.9 73.8C40.7682 69.8196 46.8651 64.6372 51.9 58.5C55.3 54.1 57.8 49.1 59.3 43.7C60.5 38.6 60.7 33.3 59.7 28.2ZM22.4 6.1C23 5.5 25 3.7 29.4 3.7C32 3.7 34.6 4.6 36.6 6.3C37.9 7.2 39 7.9 40.4 7.9H44L48 10.7L46.4 14.2H42.8C42.3 14.2 41.8 14 41.4 13.6C40.9082 13.1168 40.5915 12.4834 40.5 11.8H39.9C39.9 12.2 39.9 12.7 40.1 13.1C40.2 13.5 40.5 13.9 40.8 14.3C40.9 14.5 41.1 14.6 41.3 14.7L40.4 16.6L42.8 19.2H41L37.8 16.5H37.1L39.4 19.2H34.7L32 16.5H30.4C30.7 15.8 30.9 15 30.9 14.2V13L30.8 12.6C30.7 12 30.5 11.5 30.2 11C29.9 10.5 29.6 10 29.2 9.6L29.1 9.5L28.9 9.4L28.6 9.1C28.4 8.9 28.1 8.8 27.9 8.6C26.9 8 26 7.7 25.1 7.6H24.3V8.2C25.3 8.2 26.3 8.5 27.1 9.1C27.3 9.2 27.5 9.4 27.7 9.5L28.2 10C28.5 10.4 28.8 10.8 29 11.2C29.2 11.6 29.4 12.1 29.5 12.6V14.2C29.4 15.2 29.1 16.1 28.5 16.8L27.8 17.8H31.2L32.7 19.3H18.7V14.1H14.2L22.4 6.1ZM16.1 24.2C15.6 26.1 14 27.5 12.1 27.7H11.6C9.20001 27.7 7.10001 25.8 6.90001 23.4V23.1C6.90001 21.8 7.40001 20.6 8.40001 19.7L12.9 15.3H17.4V19.7L16.1 24.2ZM58 43.4C57.1 46.5 55.9 49.6 54.3 52.4L54 52.8L53.8 53.1L53.5 53.5L53.3 54L53.1 54.4L52.6 55.1L52.4 55.4L52 55.9L51.8 56.2L51.4 56.7L51.2 56.9L50.6 57.7L50.1 58.4C48 61 45.6 63.5 43 65.7C40.9 67.5 38.8 69.1 36.5 70.6C35.4 71.3 34.2 72.1 33 72.8L31.5 73.7L30 72.8C23.3 68.9 17.3 63.8 12.4 57.8L12 57.3L11.4 56.4L11.2 56L10.7 55.3L10.6 55.2L10.1 54.4C7.90001 51 6.20001 47.3 5.20001 43.4C4.00001 38.5 3.80001 33.4 4.70001 28.4C4.90001 26.9 5.30001 25.4 5.80001 24C5.90001 24.9 6.30001 25.8 6.80001 26.5C6.60001 27.2 6.50001 27.9 6.30001 28.7C6.10001 29.9 5.90001 31.2 5.90001 32.4L14.1 36.2C14.2 36 14.4 35.8 14.6 35.6L15 35.2L10 28.7C10.9 28.9 11.8 29 12.7 28.8L16.1 34.4C16.5 34.2 16.9 34.1 17.4 34L16.9 25.6C17.1 25.2 17.2 24.9 17.3 24.5L18.5 20.5V20.4H44.9L45.1 20.2C46.5 18.7 48.4 17.9 50.4 18C51.9 18 53.3 18.5 54.4 19.5C55.4 20.3 56.1 21.4 56.7 22.5C57.6 24.4 58.2 26.4 58.5 28.4C59.4 33.4 59.2 38.5 58 43.4Z" fill="black"/>
    <path d="M44.2 11.1C44.5866 11.1 44.9 10.7866 44.9 10.4C44.9 10.0134 44.5866 9.7 44.2 9.7C43.8134 9.7 43.5 10.0134 43.5 10.4C43.5 10.7866 43.8134 11.1 44.2 11.1Z" fill="black"/>
    <path d="M40.4 10.8C40.5 10.3 40.9 9.9 41.4 9.8V9.1H39.8V10.8H40.4ZM56.8 28.7C56.1 24.6 54.4 19.7 50.4 19.7C48.5 19.6 46.7 20.6 45.8 22.2H31.2L21.2 35.2C21.3139 35.3235 21.4495 35.4252 21.6 35.5C21.799 35.7085 21.9673 35.9441 22.1 36.2L29.3 32.9L28.7 35.5L22.7 37.4C22.8 37.8 22.9 38.3 22.9 38.8C22.7 38.8 22.5 38.7 22.3 38.6C22.1 38.5 21.9 38.4 21.7 38.4L21.4 38.3L20.8 38C20.3 37.8 19.8 37.6 19.3 37.6H16.9C16.4 37.7 15.9 37.8 15.4 38L14.8 38.3L14.5 38.4C14.3 38.5 14.1 38.6 13.9 38.6C13.7 38.7 13.5 38.7 13.3 38.8C13.3 38.3 13.4 37.8 13.5 37.4L5.79999 34.9C5.79999 35.8 5.79999 36.7 5.89999 37.6V38.9H6.69999L7.19999 39C7.69999 39.1 8.29999 39.3 8.69999 39.6C9.69999 40.1 10.8 40.4 11.9 40.4C13 40.4 14.1 40.2 15.1 39.6C15.3 39.5 15.6 39.4 15.8 39.3C16.3 39.1 16.9 39 17.5 39H18.2C18.7471 39.0026 19.2891 39.1042 19.8 39.3C20.1 39.4 20.3 39.5 20.6 39.6C21.6 40.1 22.7 40.4 23.8 40.4C24.9 40.4 26 40.2 27 39.6L27.5 39.4L27.2 40.6L28.3 40.4L28 41.7C27.4 41.8 26.9 42 26.4 42.3C25.5 42.8 24.6 43 23.6 43C22.6 43 21.7 42.8 20.8 42.3C19.8 41.8 18.7 41.5 17.6 41.5C16.5 41.5 15.4 41.7 14.4 42.3C13.5 42.8 12.6 43 11.6 43C10.6 43 9.69999 42.8 8.79999 42.3C8.29999 42 7.79999 41.8 7.19999 41.7C6.89999 41.7 6.69999 41.6 6.39999 41.6C6.49999 41.9 6.49999 42.2 6.59999 42.5H7.39999L7.99999 42.7C8.29999 42.8 8.69999 43 8.99999 43.1C9.99999 43.6 11.1 43.9 12.2 43.9C13.3 43.9 14.4 43.7 15.4 43.1C16.3 42.6 17.2 42.4 18.2 42.4C19.2 42.4 20.1 42.6 21 43.1C22 43.6 23.1 43.9 24.2 43.9C25.3 43.9 26.4 43.7 27.4 43.1C27.7 42.9 28.1 42.8 28.4 42.7L27.8 45.3C27.5 45.4 27.2 45.6 26.9 45.7C26.1 46.2 25.1 46.4 24.2 46.4C23.3 46.4 22.3 46.2 21.5 45.7C20.5 45.2 19.4 44.9 18.3 44.9C17.2 44.9 16.1 45.1 15.1 45.7C14 46 13 46.2 12.1 46.2C11.2 46.2 10.2 46 9.39999 45.5L8.79999 45.2C8.39999 45 7.89999 44.9 7.49999 44.8C7.69999 45.3 7.79999 45.7 7.99999 46.2C8.79999 48.2 9.69999 50.1 10.8 52L10.9 52.3L11.1 52.7L11.3 53L11.5 53.4L11.7 53.7L11.9 54.1L12.3 54.7L12.6 55.1L12.8 55.4L13.1 55.8L13.3 56L13.8 56.7C18.6 62.5 24.4 67.5 31 71.2L31.6 71.6L32.2 71.2C38.8 67.4 44.6 62.5 49.3 56.6C49.6 56.3 49.8 55.9 50.1 55.6L50.2 55.5C50.4 55.2 50.7 54.8 50.9 54.5L51 54.4C51.5 53.7 52 52.9 52.4 52.2C53.6 50.2 54.5 48.2 55.3 46.1C55.5 45.7 55.6 45.3 55.7 44.9C55.2 45 54.8 45.1 54.4 45.3H54.3L53.7 45.6C52 46.5 50 46.5 48.3 45.6C46.3 44.6 43.9 44.6 41.8 45.6C40.1 46.5 38.1 46.5 36.4 45.6C36.1 45.5 35.8 45.3 35.5 45.2L34.5 40.4L35.7 40.6L35 37.4L38.8 33.7L41.3 35.5L45.2 31.6L49 35.6L51.5 33.8L57.1 39.4C57.1 39 57.2 38.6 57.2 38.2V37.8C57.4 34.7 57.3 31.7 56.8 28.7ZM49.5 29.3L49.6 29.1H51L51.4 27.7H51.6L52 29H53.4L53.5 29.2L52.3 30L52.7 31.4L52.5 31.5L51.3 30.7L50.1 31.5L49.9 31.4L50.3 30L49.5 29.3ZM46.5 29.1L46.3 29.2L45.1 28.4L44 29.2L43.8 29.1L44.2 27.7L43 26.9L43.1 26.7H44.5L45 25.3H45.2L45.6 26.7H47L47.1 26.9L46 27.8L46.5 29.1ZM40 31.5L39.8 31.6L38.6 30.8L37.4 31.6L37.2 31.5L37.6 30.1L36.4 29.3L36.5 29.1H37.9L38.3 27.7H38.5L38.9 29H40.3L40.4 29.2L39.2 30L40 31.5ZM34.8 47.5L33.4 47.2L35.3 56.4L31.6 54.9L27.9 56.4L29.8 47.2L28.4 47.5L30.2 38.7L29.1 38.9L31.4 26.7H31.6L34 38.9L32.9 38.7L34.8 47.5ZM32.3 57.6L32.6 66.3H30.5L30.8 57.6V56.2L31.5 55.9L32.2 56.2L32.3 57.6ZM29.8 60.1V60.7C29.1 60.7 28.4 60.9 27.8 61.2C26.7 61.8 25.4 62.1 24.1 62.1C22.9 62.1 21.6 61.9 20.6 61.3L20.5 61.2L20 61H19.9C19.7 60.9 19.6 60.9 19.4 60.8L19.9 60.4L20 60.3C20.3 60.4 20.5 60.5 20.8 60.6L21.1 60.8C21.9825 61.1892 22.9355 61.3934 23.9 61.4C25 61.4 26.1 61.2 27.1 60.6C27.9 60.2 28.8 59.9 29.7 59.9L29.8 60.1ZM42 60.7L42.3 60.5C42.5 60.4 42.8 60.3 43.1 60.2L43.8 60.8C43.6 60.9 43.4 60.9 43.3 61L43 61.2L42.9 61.3C41.8 61.9 40.6 62.1 39.4 62.1C38.1 62.1 36.8 61.8 35.7 61.2C35.1 60.9 34.4 60.7 33.7 60.7V59.9C34.6 59.9 35.5 60.1 36.3 60.6C37.3 61.1 38.4 61.4 39.5 61.4C40.2 61.3 41.1 61.1 42 60.7ZM27.3 46.6L26.8 49L28.3 48.7L26.2 58.5L30.1 56.6L30 57.9L29.9 59C28.8 59 27.8 59.2 26.9 59.8C26 60.2 25 60.4 24 60.4C23.1 60.4 22.2 60.2 21.4 59.8L21.2 59.7C20.9 59.6 20.6 59.4 20.3 59.3V47.3L19.5 48V59.6L18.7 60.3V47.5L20.2 46.3H20.3L20.6 46.4L20.7 46.5C20.9 46.6 21.2 46.7 21.5 46.8C22.3 47.1 23.1 47.2 24 47.2C25.2 47.4 26.3 47.1 27.3 46.6ZM35.9 46.6C36.9 47.1 38 47.4 39.1 47.4C39.9 47.4 40.8 47.3 41.6 47C41.9 46.9 42.1 46.8 42.4 46.7L42.8 46.5H42.9L44.4 47.7V60.4L43.6 59.7V48L42.7 47.3V59.4C42.4 59.5 42.1 59.6 41.8 59.8L41.6 59.9C40.8 60.3 39.9 60.5 39 60.5C38 60.5 37.1 60.3 36.2 59.8C35.3 59.3 34.2 59 33.2 59L33.1 57.9L33 56.6L36.9 58.5L36.6 57.2L34.8 48.7L36.3 49L35.9 46.6ZM41.6 50.3L42 50.1V49.1H41.9L41.6 49.3C40.8 49.7 40 49.8 39.1 49.8C38.2 49.8 37.3 49.6 36.5 49.2V50.2C38.1 50.8 39.9 50.9 41.6 50.3ZM41.6 52.9C40.8 53.3 40 53.4 39.1 53.4C38.4 53.4 37.7 53.3 37.1 53.1V54C37.7 54.2 38.4 54.3 39.1 54.3C39.9 54.3 40.8 54.2 41.6 53.9L42 53.7V52.7H41.9L41.6 52.9ZM41.6 56.4C40.8 56.8 40 56.9 39.1 56.9C38.7 56.9 38.3 56.9 37.9 56.8V57.7C38.3 57.8 38.7 57.8 39.1 57.8C39.9 57.8 40.8 57.7 41.6 57.4L42 57.2V56.2H41.9L41.6 56.4ZM10.4 24.2L10.9 24.6L16 17.6V16.7H15.2L10.4 24.2ZM39.3 41.8V38.8H38.1V39.6H38.5V41.8H39.3ZM41.8 41C42 41.6 42.6 42 43.2 41.9C43.6 41.8 44 41.5 44.1 41C44.1 40.7 43.9 40.4 43.6 40.2C43.8 40.1 44 39.8 44 39.5C43.9 38.9 43.4 38.5 42.8 38.6C42.4 38.7 42 39 41.9 39.5C41.9 39.8 42.1 40 42.3 40.2C42 40.4 41.7 40.7 41.8 41ZM42.9 39.9C42.7 39.9 42.6 39.8 42.6 39.6C42.6 39.4 42.7 39.3 42.9 39.3C43.1 39.3 43.2 39.4 43.2 39.6C43.2 39.7 43.1 39.9 42.9 39.9ZM42.9 41.2C42.7 41.2 42.6 41.1 42.6 40.9C42.6 40.7 42.7 40.6 42.9 40.6C43.1 40.6 43.2 40.7 43.2 40.9C43.2 41.1 43.1 41.2 42.9 41.2C42.9 41.3 42.9 41.3 42.9 41.2ZM47.3 38.8L46.7 39.6C46.4 39.9 46.2 40.4 46.2 40.8C46.2 41.1 46.4 41.4 46.6 41.6C46.9 41.8 47.2 41.9 47.5 41.9C48.1 42 48.7 41.5 48.8 40.8V40.7C48.8 40.1 48.4 39.7 47.9 39.6H47.5L48.3 38.6L47.3 38.8ZM47.4 40.4C47.6 40.4 47.8 40.7 47.8 40.9C47.8 41.1 47.6 41.2 47.4 41.3C47.2 41.3 46.9 41.2 46.9 40.9C46.9 40.7 47 40.4 47.4 40.4ZM50.7 41C50.8 41.6 51.5 42 52.1 41.9C52.5 41.8 52.9 41.5 53 41C53 40.7 52.8 40.4 52.5 40.2C52.7 40.1 52.9 39.8 52.9 39.5C52.8 38.9 52.3 38.5 51.7 38.6C51.3 38.7 50.9 39 50.8 39.5C50.8 39.8 51 40 51.2 40.2C50.9 40.3 50.7 40.7 50.7 41ZM51.8 39.9C51.6 39.9 51.5 39.8 51.5 39.6C51.5 39.4 51.6 39.3 51.8 39.3C52 39.3 52.1 39.4 52.1 39.6C52.1 39.7 52 39.9 51.8 39.9ZM51.8 41.2C51.6 41.2 51.5 41.1 51.5 40.9C51.5 40.7 51.6 40.6 51.8 40.6C52 40.6 52.1 40.7 52.1 40.9C52.2 41.1 52.1 41.2 51.8 41.2C51.9 41.3 51.9 41.3 51.8 41.2Z" fill="black"/>
    <path d="M67.3 30C67.3 23.1 71 18.9 77.6 18.9C84.2 18.9 87.8 23.1 87.8 30C87.8 36.9 84.1 41.1 77.5 41.1C70.9 41.1 67.3 36.8 67.3 30ZM82.4 30C82.4 23.2 80.9 20.6 77.6 20.6C74.3 20.6 72.8 23.2 72.8 30C72.8 36.8 74.3 39.3 77.6 39.3C80.9 39.3 82.4 36.7 82.4 30ZM98.2 39.6L97.7 40.7H88.8V39.7L90.3 39V29L88.8 26.6V26.2L94.3 24.4H95L94.9 28.1H95C95.7 26.2 97.2 24.4 99.6 24.4C101.1 24.2 102.5 25.3 102.7 26.9V27.3C102.8 28.7 101.8 29.9 100.4 30H100.2C98.9 30.1 97.8 29.1 97.7 27.8V27.5C96.6 28 95.7 28.8 95 29.8V38.9L98.2 39.6ZM111.7 38C113.1 38 114.6 37.5 115.6 36.6L116.3 37.4C115.1 40 112.9 41.1 109.8 41.1C105.6 41.1 102.4 38.4 102.4 33C102.4 27.6 106.1 24.5 110.6 24.5C114.2 24.5 116.7 26.6 116.7 30.4C116.7 31.1 116.6 31.8 116.5 32.5H107C107.1 35.7 108.6 38 111.7 38ZM107.1 30.7H112.3C112.4 30.3 112.4 29.8 112.4 29.3C112.4 27.6 111.9 26.1 110.2 26.1C108.5 26.1 107.4 27.6 107.1 30.7ZM128.2 37.5C131.7 37.5 133.9 39.2 133.9 42.7C133.9 47.2 129.5 48.8 124.7 48.8C120.2 48.8 117 47.8 117 45C117 42.9 118.6 42 121.1 41.6V41.5C119 41.3 117.8 40.1 117.8 38.2C117.8 36.3 119.2 35.2 121.2 34.8C119.1 34.3 117.7 32.4 117.8 30.2C117.8 27 120.2 24.5 124.8 24.5C126.8 24.5 128.8 24.9 130.6 25.7C130.4 25.4 130.4 25.1 130.4 24.8C130.4 23.8 131.2 22.9 132.2 22.9H132.4C133.5 22.9 134.4 23.7 134.4 24.8V25C134.5 26.1 133.7 27.1 132.6 27.2H132.2C131.2 27.1 130.2 26.9 129.3 26.4V26.8C130.7 27.4 131.5 28.8 131.5 30.3C131.5 33.8 128 35.4 124.8 35.4C124 35.4 123.3 35.3 122.6 35.1C121.8 35.4 121.3 35.8 121.3 36.6C121.3 37.4 121.7 37.7 122.6 37.7L128.2 37.5ZM120.9 44.3C120.9 46.2 122.3 47.1 124.8 47.1C127.7 47.1 129.9 46.3 129.9 44C129.9 42.6 129.2 41.8 127 41.8H122.4C121.5 42.3 120.9 43.3 120.9 44.3ZM124.7 26C122.8 26 122.5 27.4 122.5 29.8C122.5 32.2 122.8 33.6 124.7 33.6C126.6 33.6 126.9 32.2 126.9 29.8C126.9 27.4 126.6 26 124.7 26ZM141.2 41.1C136.3 41.1 133 38.3 133 32.8C133 27.3 136.2 24.5 141.2 24.5C146.2 24.5 149.4 27.3 149.4 32.8C149.4 38.3 146.2 41.1 141.2 41.1ZM141.2 39.4C143.6 39.4 144.3 37 144.3 32.7C144.3 28.4 143.6 26.1 141.2 26.1C138.8 26.1 138.1 28.5 138.1 32.7C138.1 36.9 138.8 39.4 141.2 39.4ZM168.6 39.6L168.1 40.7H160.1V39.7L161.6 39V31C161.6 28.6 160.4 27.8 159 27.8C157.9 27.8 156.9 28.3 156.1 29V38.9L158.3 39.6L157.8 40.7H149.8V39.7L151.3 39V29L149.8 26.6V26.2L155.3 24.4H156.1L156 27.6H156.1C157.2 25.6 159.4 24.4 161.7 24.4C164.4 24.4 166.4 26.3 166.4 30V38.9L168.6 39.6ZM183.3 36.3C183.3 34.3 182.3 33.4 179.9 32.4L177.3 31.3C174.6 30.4 172.8 27.8 173 25C173 20.6 176.4 18.8 179.9 18.8C181.5 18.8 183 19.1 184.5 19.6L186.3 18.8L186.6 24.9L185.6 25.1L183.8 22.8C183 21.3 181.4 20.4 179.7 20.5C178.2 20.4 176.9 21.5 176.8 23V23.3C176.8 25 177.6 26 179.8 26.8L182.5 27.9C185.9 29.3 187.4 31.2 187.4 34.6C187.4 39 184.1 41.1 180.2 41.1C178.5 41.1 176.7 40.7 175.2 39.9L173.2 41.1L172.6 34.2L173.7 34L175.5 36.6C176.7 38.5 178.1 39.4 180.1 39.4C181.6 39.5 183 38.4 183.2 36.9C183.3 36.7 183.3 36.5 183.3 36.3Z" fill="#D73F09"/>
    <path d="M187.8 25.5L193.6 20.5H194.7V24.8H199.5L199.2 26.7H194.7V35.3C194.7 37.4 195.5 38.2 197 38.2C198 38.2 198.9 37.9 199.7 37.4L200.1 38.3C198.9 40.1 196.9 41.1 194.8 41C191.9 41 190 39.6 190 35.8V26.6H187.8V25.5V25.5Z" fill="#D73F09"/>
    <path d="M213.9 37.2C213.9 38.8 214.5 39.2 216.2 39L216.3 39.7C215.784 40.1578 215.183 40.5085 214.531 40.7317C213.878 40.9549 213.188 41.0461 212.5 41C210.9 41 209.6 40.3 209.3 38.7H209.2C208.4 40.3 206.8 41.1 204.8 41.1C202.4 41.1 200.3 39.8 200.3 36.7C200.3 33.5 202.9 31.9 206.9 31.9C207.643 31.9014 208.383 32.0023 209.1 32.2V30.8C209.1 28.7 207.7 27.6 205.6 27.6C204.1 27.6 202.6 28 201.2 28.7L200.8 27.6C202.5 25.4 205.1 24.2 207.9 24.4C210.9 24.4 213.9 25.8 213.9 30.2V37.2ZM208.3 33.6C206.1 33.6 204.9 34.1 204.9 36.1C204.8 37.2 205.5 38.2 206.6 38.4H207C207.8 38.4 208.5 38.2 209.1 37.6V33.6H208.3Z" fill="#D73F09"/>
    <path d="M214.6 25.5L220.4 20.5H221.5V24.8H226.3L226 26.7H221.5V35.3C221.5 37.4 222.3 38.2 223.8 38.2C224.8 38.2 225.7 37.9 226.5 37.4L226.9 38.3C225.7 40.1 223.7 41.1 221.6 41C218.7 41 216.8 39.6 216.8 35.8V26.6H214.6V25.5V25.5Z" fill="#D73F09"/>
    <path d="M235.9 38C237.3 38 238.8 37.5 239.8 36.6L240.5 37.4C239.3 40 237.1 41.1 234 41.1C229.8 41.1 226.6 38.4 226.6 33C226.6 27.6 230.3 24.5 234.7 24.5C238.3 24.5 240.8 26.6 240.8 30.4C240.8 31.1 240.7 31.8 240.6 32.5H231.2C231.3 35.7 232.8 38 235.9 38ZM231.3 30.7H236.4C236.5 30.3 236.5 29.8 236.5 29.3C236.5 27.6 236 26.1 234.3 26.1C232.6 26.1 231.6 27.6 231.3 30.7Z" fill="#D73F09"/>
    <path d="M85.9 62.3C85.9 67.6 82.4 70.3 77.7 70.3C72.8 70.3 69.4 68.3 69.4 62.7V50.5L66.7 49.7L67 48.5H75.2L75.5 49.7L72.8 50.5V62.2C72.8 66.4 74.6 68.3 78.1 68.3C81.6 68.3 83.8 66.4 83.8 61.9V50.5L81 49.7L81.3 48.5H88.3L88.6 49.7L85.9 50.5V62.3ZM105 68.9L104.6 70H97.6V69L99.3 68.4V59.4C99.3 57.1 97.8 56.6 96.6 56.6C95.2 56.6 93.9 57.1 92.8 58V68.2L95.4 68.9L94.9 70H87.9V69L89.6 68.4V57.8L87.8 55.8V55.4L92.2 53.7H92.8L92.7 56.8H92.9C94 54.9 96 53.7 98.2 53.7C100.3 53.7 102.5 55 102.5 58.7V68.2L105 68.9ZM112.9 68.9L112.4 70H105.4V69L107.1 68.4V57.8L105.3 55.8V55.4L109.7 53.7H110.3V68.3L112.9 68.9ZM108.7 46.6C109.9 46.6 111 47.6 111 48.9C111 50.1 110 51.2 108.7 51.2C107.5 51.2 106.4 50.2 106.4 48.9C106.4 47.7 107.4 46.7 108.7 46.6ZM124 55.9L121.6 55.1L121.8 54H127.7L127.9 55.1L126.2 55.8L120.7 70H118.9L113.1 56L111.5 55L111.8 54H118.5L118.8 55.1L116.5 55.7L119.1 62.1C119.7 63.5 120.1 65 120.4 66.5H120.6C120.9 65 121.4 63.5 121.9 62L124 55.9ZM134.8 68C136.4 68 138 67.5 139.3 66.5L139.8 67.3C138.5 69.3 136.2 70.5 133.8 70.3C129.9 70.3 126.8 67.6 126.8 62.1C126.8 56.6 130.2 53.6 134.3 53.6C137.6 53.6 140 55.6 140 59.3C140 59.9 139.9 60.6 139.8 61.2H129.9C129.9 65.5 131.8 68 134.8 68ZM130 59.8H136.7V58.8C136.7 56.5 135.8 55.3 133.9 55.3C132 55.3 130.5 56.7 130 59.8ZM148.8 68.9L148.3 70H140.6V69L142.3 68.4V57.8L140.5 55.8V55.4L144.9 53.7H145.5L145.4 57.5H145.5C146.4 55.5 148.1 53.7 150.1 53.7C151.8 53.7 152.8 54.7 152.8 56.1C152.9 57.2 152.1 58.2 150.9 58.3H150.7C149.6 58.4 148.7 57.5 148.6 56.4V56.1C147.3 56.8 146.2 57.8 145.5 59.1V68.4L148.8 68.9ZM153.8 64.8C155.3 68.1 156.8 68.9 158.7 68.9C160.3 68.9 161.4 68.3 161.4 66.6C161.4 65.2 160.6 64.4 158.8 63.8L156.7 63.1C154.5 62.3 153.1 61 153.1 58.3C153.1 55.2 155.4 53.7 158.4 53.7C159.4 53.7 160.4 54 161.3 54.4L163.1 53.8L163.4 58.5L162.6 58.8C161 56.1 159.7 55.3 158.2 55.3C157 55.1 155.9 56 155.7 57.2V57.5C155.7 58.8 156.4 59.7 158.1 60.3L160.2 61C162.6 61.8 164.1 63.1 164.1 65.9C164.1 69.1 161.7 70.5 158.4 70.5C157.1 70.5 155.9 70.2 154.8 69.7L153.2 70.5L152.9 65.2L153.8 64.8ZM172.5 68.9L172 70H165V69L166.7 68.4V57.8L164.9 55.8V55.4L169.3 53.7H169.9V68.3L172.5 68.9ZM168.3 46.6C169.5 46.6 170.6 47.6 170.5 48.9C170.5 50.1 169.5 51.2 168.2 51.1C167.618 51.0948 167.062 50.8613 166.65 50.4499C166.239 50.0384 166.005 49.4819 166 48.9C166 47.7 167 46.7 168.3 46.6C168.2 46.6 168.2 46.6 168.3 46.6ZM171.4 54.8L176 49.8H176.7V54.1H182L181.7 55.8H176.6V65.3C176.6 67.3 177.5 68.2 179 68.2C180 68.2 181.1 67.9 182 67.4L182.4 68.3C181.1 69.7 179.3 70.4 177.4 70.3C175 70.3 173.4 69 173.4 65.8V55.8H171.3L171.4 54.8Z" fill="black"/>
    <path d="M182 56L180.4 55L180.7 54H187.5L187.8 55.1L185.5 55.7L188.1 62.6C188.686 64.0787 189.089 65.6235 189.3 67.2H189.4L190.8 62.5L193 55.8L190.6 55L190.8 53.9H196.6L196.8 55L195.1 55.7L190 69.7C187.7 75.9 185.8 77.9 182.8 77.9C180.9 77.9 179.9 76.8 179.9 75.4C179.88 75.1358 179.913 74.8701 179.999 74.6193C180.084 74.3685 180.22 74.1378 180.398 73.9412C180.576 73.7447 180.792 73.5865 181.033 73.4762C181.274 73.366 181.535 73.306 181.8 73.3H182C182.474 73.2881 182.934 73.4573 183.287 73.7733C183.64 74.0892 183.859 74.5279 183.9 75V75.2C183.9 75.6 183.8 76.1 183.5 76.4C185 76.4 186.9 73.7 187.9 70.6L182 56Z" fill="black"/>
    <g clip-path="url(#clip0_4_2)">
        <path d="M336.8 34.1C338 32.5 343.4 26.6 353.9 27.6C364.2 28.7 370.9 36.3 370.5 45.5C369.8 61.2 353.2 63.5 351.8 52.3C354.6 57.3 361.2 55.3 364 52.7C367.2 49.7 369.3 42.8 365.7 36.9C361.8 30.5 356.1 29 352.3 28.6C341.3 27.3 336.8 34.1 336.8 34.1Z" fill="#A2AD00"/>
        <path d="M342.5 28.6C345.4 27.2 348.8 26.2 352.9 26.1C357.2 26 367 28.4 371.3 37.6C376.1 47.7 370.3 61.1 360.2 61.9C358 62.1 354.8 61.6 352.2 59.8C349.4 58 346.7 54.1 347.7 49.5C348.2 47.2 349.9 45.9 351.8 45.6C354.6 45.1 356.7 47.7 355 50.8C354.7 51.3 361.1 51.7 363.2 46.3C364.4 43.2 363.8 37.8 360.9 34.9C351.8 26 336.6 31.5 333.9 41.2C333.1 43.5 333 46.3 333 46.3C333 58.1 342.5 67.6 354.3 67.6C366.1 67.6 375.6 58 375.6 46.3C375.7 34.6 366.1 25 354.3 25C350 25 345.8 26.4 342.5 28.6Z" fill="#21578A"/>
        <path d="M396.1 44.2C396.1 48.7 391.9 51.9 387.4 51.9H386.1V58.4H381.8V36.4H387.4C391.9 36.5 396.1 39.7 396.1 44.2ZM386.1 47.6H387.4C389.6 47.6 391.7 46.4 391.7 44.2C391.7 42 389.5 40.8 387.4 40.8H386.1V47.6Z" fill="#21578A"/>
        <path d="M413.1 56.8L409.6 58.9C408.9 58.4 408.1 57.3 407.8 56.9C407.8 56.9 406.1 59.1 403.1 59.1C400 59.1 396.9 56.8 396.9 53.4C396.9 49.8 400.2 47.5 404.2 47.5C404.8 47.5 406.1 47.5 406.1 47.5C406.1 45.9 405.2 44.9 403.4 44.9C402.6 44.9 401.4 45.1 400.4 45.8L399 42.5C399 42.5 400.8 41.1 403.5 41.1C408 41.1 410.4 44 410.4 47.7V51.3C410.3 53.6 411.2 55.3 413.1 56.8ZM404.2 50.7C401.6 50.7 401.2 52.3 401.2 53.3C401.2 54.5 402.3 55.1 403.2 55.1C404.9 55.1 406.3 53.5 406.3 53.5C406.3 53.5 406.1 52.1 406.1 50.7C406.1 50.7 404.3 50.7 404.2 50.7Z" fill="#21578A"/>
        <path d="M428 44.2L424.4 46.7C423.6 45.7 422.7 45.2 421.4 45.2C419.1 45.2 417.8 47.7 417.8 50C417.8 52.3 419 54.8 421.4 54.8C422.7 54.8 423.7 54.4 424.4 53.3L428 55.8C426.3 58 424.3 58.9 421.4 58.9C416.8 58.9 413.6 54.6 413.6 49.9C413.6 45.2 416.8 40.9 421.4 40.9C424.3 41.1 426.3 41.9 428 44.2Z" fill="#21578A"/>
        <path d="M431.9 38.9C430.5 38.9 429.4 37.8 429.4 36.4C429.4 35 430.5 33.9 431.9 33.9C433.3 33.9 434.4 35 434.4 36.4C434.4 37.8 433.3 38.9 431.9 38.9ZM429.7 58.5V41.6H433.9V58.4H429.7V58.5Z" fill="#21578A"/>
        <path d="M440 66.7L436.5 64.6C438.4 63.1 439.3 61.4 439.3 59V45.8H436.4V41.6H439.3V39.7C439.3 36.1 441.6 33.4 445.1 32.6L447.5 35C445.2 35.4 443.5 37.3 443.5 39.7V41.6H446.8V45.8H443.5V59C443.4 62.3 442.4 64.5 440 66.7Z" fill="#21578A"/>
        <path d="M451.2 38.9C449.8 38.9 448.7 37.8 448.7 36.4C448.7 35 449.8 33.9 451.2 33.9C452.6 33.9 453.7 35 453.7 36.4C453.7 37.8 452.6 38.9 451.2 38.9ZM449.1 58.5V41.6H453.3V58.4H449.1V58.5Z" fill="#21578A"/>
        <path d="M470.2 44.2L466.6 46.7C465.8 45.7 464.9 45.2 463.6 45.2C461.3 45.2 460 47.7 460 50C460 52.3 461.2 54.8 463.6 54.8C464.9 54.8 465.9 54.4 466.6 53.3L470.2 55.8C468.5 58 466.5 58.9 463.6 58.9C459 58.9 455.8 54.6 455.8 49.9C455.8 45.2 459 40.9 463.6 40.9C466.5 41.1 468.5 41.9 470.2 44.2Z" fill="#21578A"/>
        <path d="M472.4 42C472.4 38.5 475.8 36 479.2 36C481.6 36 483.4 36.8 485.1 38.6L482.4 41.7C481.7 40.8 480.8 40.1 479.3 40.1C477.8 40.1 476.8 41 476.8 42.1C476.8 43.4 478 43.9 479.3 44.7L480.6 45.4C483.7 47.2 485.7 48.5 485.7 52.2C485.7 56 482.4 59.2 478.4 59.2C476 59.2 474.1 58.6 472 56.5L474.9 53C476.1 54.6 477.3 55.2 478.7 55.2C480.2 55.2 481.3 54 481.3 52.6C481.3 51.1 480.2 50.4 478.9 49.7L477.6 49C474.6 47.1 472.4 45.9 472.4 42Z" fill="#21578A"/>
        <path d="M502.9 50C502.9 54.7 499.6 59 494.9 59C490.2 59 486.9 54.8 486.9 50C486.9 45.3 490.2 41 494.9 41C499.6 41.1 502.9 45.3 502.9 50ZM494.9 54.8C497.3 54.8 498.6 52.4 498.6 50C498.6 47.6 497.2 45.2 494.9 45.2C492.5 45.2 491.2 47.6 491.2 50C491.2 52.4 492.6 54.8 494.9 54.8Z" fill="#21578A"/>
        <path d="M521.3 56.8L517.8 58.9C517.3 58.5 515.7 56.5 515.7 56.5C515.7 56.5 513.2 59.1 510.2 59.1C507.5 59.1 504.8 57 504.8 53.9V41.6H509V51.9C509 52.8 509 54.7 510.8 54.7C513.8 54.7 514.3 51.5 514.3 51.5V41.6H518.5V51.2C518.5 53.6 519.4 55.3 521.3 56.8Z" fill="#21578A"/>
        <path d="M527 58.5H522.8V48.9C522.8 46.5 521.9 44.8 520 43.3L523.5 41.2C524.3 41.8 525.6 43.5 525.6 43.7C525.6 43.7 528.4 41.1 530.9 41.1L531.7 45.5C529.4 45.4 526.9 48.6 526.9 48.6V58.5H527Z" fill="#21578A"/>
        <path d="M546.4 44.2L542.8 46.7C542 45.7 541.1 45.2 539.8 45.2C537.5 45.2 536.2 47.7 536.2 50C536.2 52.3 537.4 54.8 539.8 54.8C541.1 54.8 542.1 54.4 542.8 53.3L546.4 55.8C544.7 58 542.7 58.9 539.8 58.9C535.2 58.9 532 54.6 532 49.9C532 45.2 535.2 40.9 539.8 40.9C542.7 41.1 544.7 41.9 546.4 44.2Z" fill="#21578A"/>
        <path d="M558.1 53.6L560.4 55.9C560.4 55.9 558.2 59 554.3 59C549.6 59 546.7 54.7 546.7 50C546.7 45.3 549.7 41 554.3 41C558 41 560.3 43 561.3 46.2C559.4 50.2 556.2 52.2 551.8 52.2C551.5 52.2 551.2 52.2 551.2 52.2C551.3 52.7 552 54.8 554.3 54.8C557 55 558.1 53.6 558.1 53.6ZM557 46.3C557 46.3 556.1 45.2 554.4 45.2C551.5 45.2 551.1 49.2 551.1 49.2C554.4 49.2 555.8 48.2 557 46.3Z" fill="#21578A"/>
        <path d="M474.1 77.8H472.9V67.8H474.1V72.1H478V67.8H479.2V77.8H478V73.3H474.1V77.8Z" fill="#21578A"/>
        <path d="M486.4 76.6V77.8H481.7V67.8H486.2V69H482.9V72H485.7V73.2H482.9V76.6H486.4Z" fill="#21578A"/>
        <path d="M487.5 77.6L491.1 67.8H492L495.6 77.6L494.4 78L493.6 75.6H489.7L488.9 78L487.5 77.6ZM489.9 74.4H493L491.4 69.9L489.9 74.4Z" fill="#21578A"/>
        <path d="M501.8 76.6V77.8H497.2V67.8H498.4V76.6H501.8Z" fill="#21578A"/>
        <path d="M505.3 77.8V69H502.8V67.8H509V69H506.5V77.8H505.3Z" fill="#21578A"/>
        <path d="M512 77.8H510.8V67.8H512V72.1H515.9V67.8H517.1V77.8H515.9V73.3H512V77.8Z" fill="#21578A"/>
        <path d="M529.3 71.2C529.3 73.1 527.6 74.5 525.7 74.5H524.7V77.8H523.5V67.8H525.7C527.6 67.8 529.3 69.2 529.3 71.2ZM524.7 73.3H525.7C526.9 73.3 528 72.4 528 71.2C528 70 526.9 69.1 525.7 69.1H524.7V73.3Z" fill="#21578A"/>
        <path d="M535.7 76.6V77.8H531.1V67.8H532.3V76.6H535.7Z" fill="#21578A"/>
        <path d="M536.6 77.6L540.2 67.8H541.1L544.7 77.6L543.5 78L542.7 75.6H538.8L538 78L536.6 77.6ZM539.1 74.4H542.2L540.6 69.9L539.1 74.4Z" fill="#21578A"/>
        <path d="M547.6 70.2V77.8H546.4V67.8H547.6L552.2 75.4V67.8H553.4V77.8H552.2L547.6 70.2Z" fill="#21578A"/>
        <path d="M555.6 70.2C555.6 68.7 557 67.6 558.4 67.6C559.3 67.6 560.1 67.9 560.7 68.6L559.9 69.5C559.6 69.1 559 68.7 558.4 68.7C557.6 68.7 556.9 69.3 556.9 70.1C556.9 70.9 557.5 71.3 558.3 71.8L558.9 72.1C559.9 72.7 561 73.4 561 74.9C561 76.5 559.7 77.8 558.1 77.8C556.9 77.8 556 77.2 555.5 76.5L556.5 75.5C556.9 76.3 557.6 76.6 558.3 76.6C559.1 76.6 559.8 75.9 559.8 75C559.8 74.2 559.3 73.8 558.4 73.2L557.8 72.9C556.6 72.5 555.6 71.7 555.6 70.2Z" fill="#21578A"/>
    </g>
    <path d="M279 40C278.488 40 277.976 40.1954 277.586 40.5859C276.805 41.3669 276.805 42.6331 277.586 43.4141L284.672 50.5L277.586 57.5859C276.805 58.3669 276.805 59.6331 277.586 60.4141C277.976 60.8041 278.488 61 279 61C279.511 61 280.024 60.8046 280.414 60.4141L287.5 53.3281L294.586 60.4141C295.366 61.1951 296.633 61.1951 297.414 60.4141C298.195 59.6326 298.195 58.3674 297.414 57.5859L290.328 50.5L297.414 43.4141C298.195 42.6331 298.195 41.3669 297.414 40.5859C296.634 39.8054 295.366 39.8049 294.586 40.5859L287.5 47.6719L280.414 40.5859C280.024 40.1959 279.511 40 279 40Z" fill="black"/>
    <defs>
        <clipPath id="clip0_4_2">
            <rect width="229" height="53" fill="white" transform="translate(333 25)"/>
        </clipPath>
    </defs>
</svg>
