<svg width="1192" height="169" viewBox="0 0 1192 169" fill="none" xmlns="http://www.w3.org/2000/svg">
    <path d="M128.017 59.15C127.384 54.2913 125.905 49.6438 123.792 45.4188C122.314 42.4613 120.412 39.715 117.877 37.6025C114.709 34.8563 110.695 33.3775 106.47 33.3775C104.569 33.3775 102.667 33.5888 100.766 34.2225L106.259 22.3925L106.892 20.9138L105.625 20.28L94.8512 12.675L94.4287 12.2525H85.345C83.4437 11.83 81.5425 10.985 80.0637 9.7175C74.9937 5.70375 68.8675 3.59125 62.3187 3.59125C55.77 3.38 49.4325 5.4925 44.3625 9.92875L25.7725 28.0963L25.35 28.5188L14.5762 39.0813C12.6755 40.9464 11.1671 43.173 10.14 45.63C8.02749 50.0663 6.54874 54.5025 5.91499 59.3613C3.80249 70.5575 4.22499 81.965 6.97124 92.95C10.14 104.569 15.6325 115.343 23.0262 124.849C33.3775 137.946 46.475 148.931 61.2625 157.381L65.91 160.128L66.9662 160.761L68.0225 160.128L72.67 157.381C87.4575 148.931 100.344 137.735 111.117 124.638C118.511 115.131 124.004 104.358 127.172 92.7388C129.496 81.7538 129.919 70.3463 128.017 59.15Z" fill="white"/>
    <path d="M57.8825 46.8975H41.1937L39.715 72.0362C40.56 72.2475 41.6162 72.4587 42.4612 72.8812L57.8825 46.8975ZM44.9962 103.935L44.785 106.048L45.63 106.47C47.32 107.104 49.01 107.526 50.9112 107.315C52.8125 107.315 54.7137 107.104 56.4037 106.259V104.146C54.7137 104.991 52.8125 105.414 50.9112 105.414C49.2212 105.414 47.32 104.991 45.63 104.358L44.9962 103.935ZM45.63 111.751L44.9962 111.329H44.785V113.441L45.63 113.864C47.32 114.498 49.01 114.92 50.9112 114.709C52.39 114.709 53.8687 114.497 55.1362 114.075V112.174C53.8687 112.596 52.39 112.808 50.9112 112.808C49.01 113.019 47.1087 112.596 45.63 111.751ZM45.63 119.145L44.9962 118.723H44.785V120.835L45.63 121.257C47.32 121.891 49.01 122.103 50.7 122.103C51.545 122.103 52.39 122.103 53.235 121.891V119.99C52.39 120.201 51.545 120.201 50.7 120.201C49.01 120.413 47.1087 119.99 45.63 119.145ZM64.4312 12.2525C65.91 12.4638 67.1775 13.0975 68.445 13.7313C69.7125 14.365 70.98 15.21 72.0362 16.055C73.7262 17.5338 75.6275 18.8012 77.5287 19.8575V16.6888L73.3037 14.1537C72.0362 13.3087 70.5575 12.675 69.29 12.0412C67.8735 11.4252 66.3819 10.999 64.8537 10.7737C63.375 10.5625 61.8962 10.5625 60.2062 10.7737H59.995V12.0412H60.2062C61.4737 11.83 62.9525 12.0413 64.4312 12.2525ZM126.116 59.5725C125.482 54.925 124.004 50.4887 122.102 46.2638C120.835 43.5175 118.934 40.9825 116.61 39.0812C113.864 36.7575 110.061 35.2788 106.47 35.2788C101.611 35.2788 96.9637 37.18 93.5837 40.56L88.0912 34.645L88.9362 32.7437H96.5412L95.6962 34.645H98.6537L104.569 21.7588L93.795 14.1537H85.345C83.0212 13.7313 80.6975 12.675 79.0075 11.1962C74.36 7.39375 68.445 5.28125 62.3187 5.28125C56.1925 4.85875 50.2775 6.97125 45.63 10.985L15.6325 40.3488C13.9231 42.087 12.4974 44.083 11.4075 46.2638C9.50625 50.4887 8.0275 54.925 7.39375 59.5725C5.28125 70.3463 5.70375 81.5425 8.45 92.3163C11.6187 103.724 16.9 114.286 24.2937 123.581C34.8562 136.679 47.7425 147.664 62.3187 155.903L66.9662 158.649L71.6137 155.903C86.1228 147.494 99.0025 136.546 109.639 123.581C116.821 114.286 122.102 103.724 125.271 92.3163C127.806 81.5425 128.229 70.3463 126.116 59.5725ZM47.32 12.8862C48.5875 11.6187 52.8125 7.81625 62.1075 7.81625C67.6 7.81625 73.0925 9.7175 77.3175 13.3087C80.0637 15.21 82.3875 16.6888 85.345 16.6888H92.95L101.4 22.6037L98.02 29.9975H90.415C89.3587 29.9975 88.3025 29.575 87.4575 28.73C86.4185 27.7092 85.7495 26.3712 85.5562 24.9275H84.2887C84.2887 25.7725 84.2887 26.8288 84.7112 27.6737C84.9225 28.5187 85.5562 29.3637 86.19 30.2087C86.4012 30.6312 86.8237 30.8425 87.2462 31.0537L85.345 35.0675L90.415 40.56H86.6125L79.8525 34.8562H78.3737L83.2325 40.56H73.3037L67.6 34.8562H64.22C64.8537 33.3775 65.2762 31.6875 65.2762 29.9975V27.4625L65.065 26.6175C64.8537 25.35 64.4312 24.2937 63.7975 23.2375C63.1637 22.1812 62.53 21.125 61.685 20.28L61.4737 20.0687L61.0512 19.8575L60.4175 19.2238C59.995 18.8013 59.3612 18.59 58.9387 18.1675C56.8262 16.9 54.925 16.2663 53.0237 16.055H51.3337V17.3225C53.4462 17.3225 55.5587 17.9563 57.2487 19.2238C57.6712 19.435 58.0937 19.8575 58.5162 20.0687L59.5725 21.125C60.2062 21.97 60.84 22.815 61.2625 23.66C61.685 24.505 62.1075 25.5613 62.3187 26.6175V29.9975C62.1075 32.11 61.4737 34.0112 60.2062 35.49L58.7275 37.6025H65.91L69.0787 40.7712H39.5037V29.7863H29.9975L47.32 12.8862ZM34.0112 51.1225C32.955 55.1363 29.575 58.0938 25.5612 58.5163H24.505C19.435 58.5163 14.9987 54.5025 14.5762 49.4325V48.7988C14.5762 46.0525 15.6325 43.5175 17.745 41.6163L27.2512 32.3212H36.7575V41.6163L34.0112 51.1225ZM122.525 91.6825C120.624 98.2313 118.089 104.78 114.709 110.695L114.075 111.54L113.652 112.174L113.019 113.019L112.596 114.075L112.174 114.92L111.117 116.399L110.695 117.033L109.85 118.089L109.427 118.723L108.582 119.779L108.16 120.201L106.892 121.891L105.836 123.37C101.4 128.863 96.33 134.144 90.8375 138.791C86.4012 142.594 81.965 145.974 77.1062 149.142C74.7825 150.621 72.2475 152.311 69.7125 153.79L66.5437 155.691L63.375 153.79C49.2212 145.551 36.5462 134.778 26.195 122.103L25.35 121.046L24.0825 119.145L23.66 118.3L22.6037 116.821L22.3925 116.61L21.3362 114.92C16.6887 107.738 13.0975 99.9212 10.985 91.6825C8.44999 81.3313 8.0275 70.5575 9.92875 59.995C10.3512 56.8262 11.1962 53.6575 12.2525 50.7C12.4637 52.6012 13.3087 54.5025 14.365 55.9813C13.9425 57.46 13.7312 58.9388 13.3087 60.6288C12.8862 63.1638 12.4637 65.91 12.4637 68.445L29.7862 76.4725C29.9975 76.05 30.42 75.6275 30.8425 75.205L31.6875 74.36L21.125 60.6288C23.0262 61.0512 24.9275 61.2625 26.8287 60.84L34.0112 72.67C34.8562 72.2475 35.7012 72.0362 36.7575 71.825L35.7012 54.08C36.1237 53.235 36.335 52.6012 36.5462 51.7563L39.0812 43.3063V43.095H94.8512L95.2737 42.6725C98.2312 39.5038 102.245 37.8137 106.47 38.025C109.639 38.025 112.596 39.0812 114.92 41.1938C117.032 42.8838 118.511 45.2075 119.779 47.5312C121.68 51.545 122.947 55.77 123.581 59.995C125.482 70.5575 125.06 81.3313 122.525 91.6825Z" fill="black"/>
    <path d="M93.3725 23.4488C94.1892 23.4488 94.8512 22.7867 94.8512 21.97C94.8512 21.1533 94.1892 20.4912 93.3725 20.4912C92.5558 20.4912 91.8937 21.1533 91.8937 21.97C91.8937 22.7867 92.5558 23.4488 93.3725 23.4488Z" fill="black"/>
    <path d="M85.345 22.815C85.5563 21.7588 86.4013 20.9138 87.4575 20.7025V19.2238H84.0775V22.815H85.345ZM119.99 60.6287C118.511 51.9675 114.92 41.6163 106.47 41.6163C102.456 41.405 98.6537 43.5175 96.7525 46.8975H65.91L44.785 74.36C45.0257 74.6209 45.3121 74.8357 45.63 74.9937C46.0504 75.4341 46.406 75.932 46.6862 76.4725L61.8963 69.5013L60.6288 74.9937L47.9538 79.0075C48.165 79.8525 48.3762 80.9087 48.3762 81.965C47.9537 81.965 47.5312 81.7537 47.1088 81.5425C46.6863 81.3312 46.2638 81.12 45.8413 81.12L45.2075 80.9087L43.94 80.275C42.8837 79.8525 41.8275 79.43 40.7712 79.43H35.7013C34.645 79.6412 33.5888 79.8525 32.5325 80.275L31.265 80.9087L30.6313 81.12C30.2088 81.3313 29.7863 81.5425 29.3638 81.5425C28.9413 81.7537 28.5188 81.7537 28.0963 81.965C28.0963 80.9087 28.3075 79.8525 28.5188 79.0075L12.2525 73.7263C12.2525 75.6275 12.2525 77.5287 12.4638 79.43V82.1763H14.1538L15.21 82.3875C16.2663 82.5987 17.5338 83.0212 18.3788 83.655C20.4913 84.7112 22.815 85.345 25.1388 85.345C27.4625 85.345 29.7863 84.9225 31.8988 83.655C32.3213 83.4437 32.955 83.2325 33.3775 83.0212C34.4338 82.5987 35.7013 82.3875 36.9688 82.3875H38.4475C39.6032 82.3929 40.7483 82.6076 41.8275 83.0212C42.4613 83.2325 42.8838 83.4437 43.5175 83.655C45.63 84.7112 47.9538 85.345 50.2775 85.345C52.6012 85.345 54.925 84.9225 57.0375 83.655L58.0938 83.2325L57.46 85.7675L59.7838 85.345L59.15 88.0912C57.8825 88.3025 56.8262 88.725 55.77 89.3587C53.8687 90.415 51.9675 90.8375 49.855 90.8375C47.7425 90.8375 45.8413 90.415 43.94 89.3587C41.8275 88.3025 39.5038 87.6688 37.18 87.6688C34.8563 87.6688 32.5325 88.0912 30.42 89.3587C28.5188 90.415 26.6175 90.8375 24.505 90.8375C22.3925 90.8375 20.4913 90.415 18.59 89.3587C17.5338 88.725 16.4775 88.3025 15.21 88.0912C14.5763 88.0912 14.1538 87.88 13.52 87.88C13.7313 88.5138 13.7313 89.1475 13.9425 89.7813H15.6325L16.9 90.2037C17.5338 90.415 18.3788 90.8375 19.0125 91.0487C21.125 92.105 23.4488 92.7388 25.7725 92.7388C28.0963 92.7388 30.42 92.3162 32.5325 91.0487C34.4338 89.9925 36.335 89.57 38.4475 89.57C40.56 89.57 42.4613 89.9925 44.3625 91.0487C46.475 92.105 48.7988 92.7388 51.1225 92.7388C53.4463 92.7388 55.77 92.3162 57.8825 91.0487C58.5162 90.6262 59.3612 90.415 59.995 90.2037L58.7275 95.6962C58.0938 95.9075 57.46 96.33 56.8262 96.5412C55.1362 97.5975 53.0238 98.02 51.1225 98.02C49.2213 98.02 47.1087 97.5975 45.4188 96.5412C43.3063 95.485 40.9825 94.8513 38.6588 94.8513C36.335 94.8513 34.0113 95.2737 31.8988 96.5412C29.575 97.175 27.4625 97.5975 25.5613 97.5975C23.66 97.5975 21.5475 97.175 19.8575 96.1188L18.59 95.485C17.745 95.0625 16.6888 94.8512 15.8438 94.64C16.2663 95.6962 16.4775 96.5412 16.9 97.5975C18.59 101.822 20.4913 105.836 22.815 109.85L23.0263 110.484L23.4488 111.329L23.8713 111.963L24.2938 112.808L24.7163 113.441L25.1388 114.286L25.9838 115.554L26.6175 116.399L27.04 117.033L27.6738 117.877L28.0963 118.3L29.1525 119.779C39.2925 132.031 51.545 142.594 65.4875 150.41L66.755 151.255L68.0225 150.41C81.965 142.382 94.2175 132.031 104.146 119.568C104.78 118.934 105.202 118.089 105.836 117.455L106.048 117.244C106.47 116.61 107.104 115.765 107.526 115.131L107.738 114.92C108.794 113.441 109.85 111.751 110.695 110.272C113.23 106.047 115.131 101.822 116.821 97.3862C117.244 96.5412 117.455 95.6963 117.666 94.8513C116.61 95.0625 115.765 95.2737 114.92 95.6962H114.709L113.441 96.33C109.85 98.2313 105.625 98.2313 102.034 96.33C97.8088 94.2175 92.7387 94.2175 88.3025 96.33C84.7113 98.2313 80.4863 98.2313 76.895 96.33C76.2613 96.1187 75.6275 95.6962 74.9938 95.485L72.8813 85.345L75.4163 85.7675L73.9375 79.0075L81.965 71.1912L87.2463 74.9937L95.485 66.755L103.513 75.205L108.794 71.4025L120.624 83.2325C120.624 82.3875 120.835 81.5425 120.835 80.6975V79.8525C121.257 73.3037 121.046 66.9663 119.99 60.6287ZM104.569 61.8962L104.78 61.4738H107.738L108.583 58.5163H109.005L109.85 61.2625H112.808L113.019 61.685L110.484 63.375L111.329 66.3325L110.906 66.5438L108.371 64.8538L105.836 66.5438L105.414 66.3325L106.259 63.375L104.569 61.8962ZM98.2313 61.4738L97.8088 61.685L95.2738 59.995L92.95 61.685L92.5275 61.4738L93.3725 58.5163L90.8375 56.8262L91.0488 56.4038H94.0062L95.0625 53.4462H95.485L96.33 56.4038H99.2875L99.4987 56.8262L97.175 58.7275L98.2313 61.4738ZM84.5 66.5438L84.0775 66.755L81.5425 65.065L79.0075 66.755L78.585 66.5438L79.43 63.5863L76.895 61.8962L77.1063 61.4738H80.0638L80.9088 58.5163H81.3313L82.1763 61.2625H85.1338L85.345 61.685L82.81 63.375L84.5 66.5438ZM73.515 100.344L70.5575 99.71L74.5713 119.145L66.755 115.976L58.9387 119.145L62.9525 99.71L59.995 100.344L63.7975 81.7537L61.4738 82.1763L66.3325 56.4038H66.755L71.825 82.1763L69.5013 81.7537L73.515 100.344ZM68.2337 121.68L68.8675 140.059H64.4313L65.065 121.68V118.722L66.5438 118.089L68.0225 118.722L68.2337 121.68ZM62.9525 126.961V128.229C61.4738 128.229 59.995 128.651 58.7275 129.285C56.4038 130.552 53.6575 131.186 50.9113 131.186C48.3763 131.186 45.63 130.764 43.5175 129.496L43.3063 129.285L42.25 128.862H42.0387C41.6163 128.651 41.405 128.651 40.9825 128.44L42.0387 127.595L42.25 127.384C42.8838 127.595 43.3062 127.806 43.94 128.017L44.5738 128.44C46.4381 129.262 48.4512 129.694 50.4887 129.708C52.8125 129.708 55.1362 129.285 57.2487 128.017C58.9388 127.172 60.84 126.539 62.7413 126.539L62.9525 126.961ZM88.725 128.229L89.3587 127.806C89.7812 127.595 90.415 127.384 91.0488 127.172L92.5275 128.44C92.105 128.651 91.6825 128.651 91.4713 128.862L90.8375 129.285L90.6263 129.496C88.3025 130.764 85.7675 131.186 83.2325 131.186C80.4863 131.186 77.74 130.552 75.4163 129.285C74.1488 128.651 72.67 128.229 71.1913 128.229V126.539C73.0925 126.539 74.9938 126.961 76.6838 128.017C78.7962 129.074 81.12 129.708 83.4438 129.708C84.9225 129.496 86.8238 129.074 88.725 128.229ZM57.6713 98.4425L56.615 103.513L59.7838 102.879L55.3475 123.581L63.5863 119.568L63.375 122.314L63.1637 124.638C60.84 124.638 58.7275 125.06 56.8262 126.327C54.925 127.172 52.8125 127.595 50.7 127.595C48.7988 127.595 46.8975 127.172 45.2075 126.327L44.785 126.116C44.1513 125.905 43.5175 125.482 42.8837 125.271V99.9212L41.1938 101.4V125.905L39.5038 127.384V100.344L42.6725 97.8087H42.8837L43.5175 98.02L43.7288 98.2313C44.1513 98.4425 44.785 98.6537 45.4188 98.865C47.1087 99.4987 48.7988 99.71 50.7 99.71C53.235 100.132 55.5588 99.4988 57.6713 98.4425ZM75.8388 98.4425C77.9513 99.4988 80.275 100.133 82.5987 100.133C84.2887 100.133 86.19 99.9213 87.88 99.2875C88.5137 99.0763 88.9363 98.865 89.57 98.6537L90.415 98.2313H90.6263L93.795 100.766V127.595L92.105 126.116V101.4L90.2038 99.9212V125.483C89.57 125.694 88.9362 125.905 88.3025 126.327L87.88 126.539C86.19 127.384 84.2887 127.806 82.3875 127.806C80.275 127.806 78.3738 127.384 76.4725 126.327C74.5713 125.271 72.2475 124.638 70.135 124.638L69.9237 122.314L69.7125 119.568L77.9513 123.581L77.3175 120.835L73.515 102.879L76.6838 103.513L75.8388 98.4425ZM87.88 106.259L88.725 105.836V103.724H88.5138L87.88 104.146C86.19 104.991 84.5 105.202 82.5987 105.202C80.6975 105.202 78.7962 104.78 77.1063 103.935V106.047C80.4863 107.315 84.2887 107.526 87.88 106.259ZM87.88 111.751C86.19 112.596 84.5 112.808 82.5987 112.808C81.12 112.808 79.6413 112.596 78.3737 112.174V114.075C79.6413 114.498 81.12 114.709 82.5987 114.709C84.2887 114.709 86.19 114.498 87.88 113.864L88.725 113.441V111.329H88.5138L87.88 111.751ZM87.88 119.145C86.19 119.99 84.5 120.201 82.5987 120.201C81.7537 120.201 80.9088 120.201 80.0638 119.99V121.891C80.9088 122.102 81.7537 122.102 82.5987 122.102C84.2887 122.102 86.19 121.891 87.88 121.258L88.725 120.835V118.722H88.5138L87.88 119.145ZM21.97 51.1225L23.0263 51.9675L33.8 37.18V35.2788H32.11L21.97 51.1225ZM83.0212 88.3025V81.965H80.4863V83.655H81.3313V88.3025H83.0212ZM88.3025 86.6125C88.725 87.88 89.9925 88.725 91.26 88.5138C92.105 88.3025 92.95 87.6688 93.1612 86.6125C93.1612 85.9787 92.7387 85.345 92.105 84.9225C92.5275 84.7113 92.95 84.0775 92.95 83.4438C92.7388 82.1763 91.6825 81.3312 90.415 81.5425C89.57 81.7537 88.725 82.3875 88.5138 83.4438C88.5138 84.0775 88.9362 84.5 89.3587 84.9225C88.725 85.345 88.0912 85.9787 88.3025 86.6125ZM90.6263 84.2888C90.2038 84.2888 89.9925 84.0775 89.9925 83.655C89.9925 83.2325 90.2038 83.0212 90.6263 83.0212C91.0488 83.0212 91.26 83.2325 91.26 83.655C91.26 83.8662 91.0488 84.2888 90.6263 84.2888ZM90.6263 87.035C90.2038 87.035 89.9925 86.8237 89.9925 86.4012C89.9925 85.9787 90.2038 85.7675 90.6263 85.7675C91.0488 85.7675 91.26 85.9787 91.26 86.4012C91.26 86.8237 91.0488 87.035 90.6263 87.035C90.6263 87.2462 90.6263 87.2462 90.6263 87.035ZM99.9212 81.965L98.6538 83.655C98.02 84.2887 97.5975 85.345 97.5975 86.19C97.5975 86.8237 98.02 87.4575 98.4425 87.88C99.0762 88.3025 99.71 88.5138 100.344 88.5138C101.611 88.725 102.879 87.6688 103.09 86.19V85.9787C103.09 84.7113 102.245 83.8662 101.189 83.655H100.344L102.034 81.5425L99.9212 81.965ZM100.133 85.345C100.555 85.345 100.978 85.9787 100.978 86.4012C100.978 86.8237 100.555 87.035 100.133 87.2462C99.71 87.2462 99.0763 87.035 99.0763 86.4012C99.0763 85.9787 99.2875 85.345 100.133 85.345ZM107.104 86.6125C107.315 87.88 108.794 88.725 110.061 88.5138C110.906 88.3025 111.751 87.6688 111.963 86.6125C111.963 85.9787 111.54 85.345 110.906 84.9225C111.329 84.7113 111.751 84.0775 111.751 83.4438C111.54 82.1763 110.484 81.3312 109.216 81.5425C108.371 81.7537 107.526 82.3875 107.315 83.4438C107.315 84.0775 107.738 84.5 108.16 84.9225C107.526 85.1337 107.104 85.9787 107.104 86.6125ZM109.427 84.2888C109.005 84.2888 108.794 84.0775 108.794 83.655C108.794 83.2325 109.005 83.0212 109.427 83.0212C109.85 83.0212 110.061 83.2325 110.061 83.655C110.061 83.8662 109.85 84.2888 109.427 84.2888ZM109.427 87.035C109.005 87.035 108.794 86.8237 108.794 86.4012C108.794 85.9787 109.005 85.7675 109.427 85.7675C109.85 85.7675 110.061 85.9787 110.061 86.4012C110.272 86.8237 110.061 87.035 109.427 87.035C109.639 87.2462 109.639 87.2462 109.427 87.035Z" fill="black"/>
    <path d="M142.171 63.375C142.171 48.7988 149.988 39.9263 163.93 39.9263C177.873 39.9263 185.478 48.7988 185.478 63.375C185.478 77.9513 177.661 86.8237 163.719 86.8237C149.776 86.8237 142.171 77.74 142.171 63.375ZM174.07 63.375C174.07 49.01 170.901 43.5175 163.93 43.5175C156.959 43.5175 153.79 49.01 153.79 63.375C153.79 77.74 156.959 83.0212 163.93 83.0212C170.901 83.0212 174.07 77.5288 174.07 63.375ZM207.448 83.655L206.391 85.9788H187.59V83.8663L190.759 82.3875V61.2625L187.59 56.1925V55.3475L199.209 51.545H200.688L200.476 59.3613H200.688C202.166 55.3475 205.335 51.545 210.405 51.545C213.574 51.1225 216.531 53.4463 216.954 56.8263V57.6712C217.165 60.6287 215.053 63.1638 212.095 63.375H211.673C208.926 63.5863 206.603 61.4737 206.391 58.7275V58.0938C204.068 59.15 202.166 60.84 200.688 62.9525V82.1763L207.448 83.655ZM235.966 80.275C238.924 80.275 242.093 79.2187 244.205 77.3175L245.684 79.0075C243.149 84.5 238.501 86.8237 231.953 86.8237C223.08 86.8237 216.32 81.12 216.32 69.7125C216.32 58.305 224.136 51.7563 233.643 51.7563C241.248 51.7563 246.529 56.1925 246.529 64.22C246.529 65.6987 246.318 67.1775 246.106 68.6563H226.038C226.249 75.4163 229.418 80.275 235.966 80.275ZM226.249 64.8538H237.234C237.445 64.0088 237.445 62.9525 237.445 61.8962C237.445 58.305 236.389 55.1363 232.798 55.1363C229.206 55.1363 226.882 58.305 226.249 64.8538ZM270.822 79.2188C278.216 79.2188 282.864 82.81 282.864 90.2038C282.864 99.71 273.569 103.09 263.429 103.09C253.923 103.09 247.163 100.978 247.163 95.0625C247.163 90.6263 250.543 88.725 255.824 87.88V87.6688C251.388 87.2463 248.853 84.7113 248.853 80.6975C248.853 76.6838 251.81 74.36 256.035 73.515C251.599 72.4587 248.641 68.445 248.853 63.7975C248.853 57.0375 253.923 51.7563 263.64 51.7563C267.865 51.7563 272.09 52.6013 275.893 54.2913C275.47 53.6575 275.47 53.0238 275.47 52.39C275.47 50.2775 277.16 48.3763 279.272 48.3763H279.695C282.019 48.3763 283.92 50.0662 283.92 52.39V52.8125C284.131 55.1363 282.441 57.2488 280.118 57.46H279.272C277.16 57.2488 275.048 56.8263 273.146 55.77V56.615C276.104 57.8825 277.794 60.84 277.794 64.0087C277.794 71.4025 270.4 74.7825 263.64 74.7825C261.95 74.7825 260.471 74.5712 258.993 74.1487C257.303 74.7825 256.246 75.6275 256.246 77.3175C256.246 79.0075 257.091 79.6413 258.993 79.6413L270.822 79.2188ZM255.401 93.5837C255.401 97.5975 258.359 99.4987 263.64 99.4987C269.766 99.4987 274.414 97.8088 274.414 92.95C274.414 89.9925 272.935 88.3025 268.288 88.3025H258.57C256.669 89.3587 255.401 91.4712 255.401 93.5837ZM263.429 54.925C259.415 54.925 258.781 57.8825 258.781 62.9525C258.781 68.0225 259.415 70.98 263.429 70.98C267.442 70.98 268.076 68.0225 268.076 62.9525C268.076 57.8825 267.442 54.925 263.429 54.925ZM298.285 86.8237C287.934 86.8237 280.963 80.9087 280.963 69.29C280.963 57.6712 287.723 51.7563 298.285 51.7563C308.848 51.7563 315.607 57.6712 315.607 69.29C315.607 80.9087 308.848 86.8237 298.285 86.8237ZM298.285 83.2325C303.355 83.2325 304.834 78.1625 304.834 69.0788C304.834 59.995 303.355 55.1363 298.285 55.1363C293.215 55.1363 291.736 60.2063 291.736 69.0788C291.736 77.9513 293.215 83.2325 298.285 83.2325ZM356.168 83.655L355.111 85.9788H338.211V83.8663L341.38 82.3875V65.4875C341.38 60.4175 338.845 58.7275 335.887 58.7275C333.564 58.7275 331.451 59.7838 329.761 61.2625V82.1763L334.409 83.655L333.353 85.9788H316.453V83.8663L319.621 82.3875V61.2625L316.453 56.1925V55.3475L328.071 51.545H329.761L329.55 58.305H329.761C332.085 54.08 336.732 51.545 341.591 51.545C347.295 51.545 351.52 55.5588 351.52 63.375V82.1763L356.168 83.655ZM387.221 76.6838C387.221 72.4587 385.109 70.5575 380.039 68.445L374.546 66.1213C368.843 64.22 365.04 58.7275 365.463 52.8125C365.463 43.5175 372.645 39.715 380.039 39.715C383.419 39.715 386.588 40.3488 389.756 41.405L393.559 39.715L394.193 52.6013L392.08 53.0238L388.278 48.165C386.588 44.9963 383.207 43.095 379.616 43.3063C376.447 43.095 373.701 45.4188 373.49 48.5875V49.2212C373.49 52.8125 375.18 54.925 379.828 56.615L385.531 58.9388C392.714 61.8962 395.882 65.91 395.882 73.0925C395.882 82.3875 388.911 86.8237 380.673 86.8237C377.081 86.8237 373.279 85.9788 370.11 84.2888L365.885 86.8237L364.618 72.2475L366.941 71.825L370.744 77.3175C373.279 81.3312 376.236 83.2325 380.461 83.2325C383.63 83.4438 386.587 81.12 387.01 77.9513C387.221 77.5288 387.221 77.1063 387.221 76.6838Z" fill="#D73F09"/>
    <path d="M396.728 53.8688L408.98 43.3063H411.304V52.39H421.444L420.81 56.4038H411.304V74.5713C411.304 79.0075 412.994 80.6975 416.163 80.6975C418.275 80.6975 420.176 80.0638 421.866 79.0075L422.711 80.9088C420.176 84.7113 415.951 86.8238 411.515 86.6125C405.389 86.6125 401.375 83.655 401.375 75.6275V56.1925H396.728V53.8688Z" fill="#D73F09"/>
    <path d="M451.864 78.585C451.864 81.965 453.131 82.81 456.722 82.3875L456.934 83.8663C455.845 84.8334 454.574 85.5742 453.196 86.0457C451.818 86.5171 450.36 86.7098 448.906 86.6125C445.526 86.6125 442.78 85.1338 442.146 81.7538H441.935C440.245 85.1338 436.865 86.8237 432.64 86.8237C427.57 86.8237 423.134 84.0775 423.134 77.5288C423.134 70.7688 428.626 67.3888 437.076 67.3888C438.647 67.3917 440.21 67.6048 441.724 68.0225V65.065C441.724 60.6287 438.766 58.305 434.33 58.305C431.161 58.305 427.992 59.15 425.035 60.6288L424.19 58.305C427.781 53.6575 433.274 51.1225 439.189 51.545C445.526 51.545 451.864 54.5025 451.864 63.7975V78.585ZM440.034 70.98C435.386 70.98 432.851 72.0362 432.851 76.2612C432.64 78.585 434.119 80.6975 436.443 81.12H437.288C438.978 81.12 440.456 80.6975 441.724 79.43V70.98H440.034Z" fill="#D73F09"/>
    <path d="M453.343 53.8688L465.595 43.3063H467.919V52.39H478.059L477.425 56.4038H467.919V74.5713C467.919 79.0075 469.609 80.6975 472.778 80.6975C474.89 80.6975 476.791 80.0638 478.481 79.0075L479.326 80.9088C476.791 84.7113 472.566 86.8238 468.13 86.6125C462.004 86.6125 457.99 83.655 457.99 75.6275V56.1925H453.343V53.8688Z" fill="#D73F09"/>
    <path d="M498.339 80.275C501.296 80.275 504.465 79.2187 506.578 77.3175L508.056 79.0075C505.521 84.5 500.874 86.8237 494.325 86.8237C485.453 86.8237 478.693 81.12 478.693 69.7125C478.693 58.305 486.509 51.7562 495.804 51.7562C503.409 51.7562 508.69 56.1925 508.69 64.22C508.69 65.6987 508.479 67.1775 508.268 68.6562H488.41C488.621 75.4162 491.79 80.275 498.339 80.275ZM488.621 64.8538H499.395C499.606 64.0087 499.606 62.9525 499.606 61.8962C499.606 58.305 498.55 55.1362 494.959 55.1362C491.368 55.1362 489.255 58.305 488.621 64.8538Z" fill="#D73F09"/>
    <path d="M181.464 131.609C181.464 142.805 174.07 148.509 164.141 148.509C153.79 148.509 146.608 144.284 146.608 132.454V106.681L140.904 104.991L141.538 102.456H158.86L159.494 104.991L153.79 106.681V131.398C153.79 140.27 157.593 144.284 164.986 144.284C172.38 144.284 177.028 140.27 177.028 130.764V106.681L171.113 104.991L171.746 102.456H186.534L187.167 104.991L181.464 106.681V131.609ZM221.813 145.551L220.967 147.875H206.18V145.762L209.771 144.495V125.483C209.771 120.624 206.602 119.567 204.067 119.567C201.11 119.567 198.364 120.624 196.04 122.525V144.072L201.533 145.551L200.476 147.875H185.689V145.762L189.28 144.495V122.102L185.478 117.877V117.033L194.772 113.441H196.04L195.829 119.99H196.251C198.575 115.976 202.8 113.441 207.447 113.441C211.884 113.441 216.531 116.188 216.531 124.004V144.072L221.813 145.551ZM238.501 145.551L237.445 147.875H222.658V145.762L226.249 144.495V122.102L222.446 117.877V117.033L231.741 113.441H233.009V144.284L238.501 145.551ZM229.629 98.4425C232.164 98.4425 234.488 100.555 234.488 103.301C234.488 105.836 232.375 108.16 229.629 108.16C227.094 108.16 224.77 106.048 224.77 103.301C224.77 100.766 226.882 98.6537 229.629 98.4425ZM261.95 118.089L256.88 116.399L257.303 114.075H269.766L270.189 116.399L266.597 117.877L254.979 147.875H251.176L238.924 118.3L235.544 116.188L236.178 114.075H250.331L250.965 116.399L246.106 117.666L251.599 131.186C252.866 134.144 253.711 137.312 254.345 140.481H254.767C255.401 137.312 256.458 134.144 257.514 130.975L261.95 118.089ZM284.765 143.65C288.145 143.65 291.525 142.594 294.271 140.481L295.328 142.171C292.581 146.396 287.723 148.931 282.653 148.509C274.414 148.509 267.865 142.805 267.865 131.186C267.865 119.567 275.048 113.23 283.709 113.23C290.68 113.23 295.75 117.455 295.75 125.271C295.75 126.539 295.539 128.018 295.328 129.285H274.414C274.414 138.369 278.428 143.65 284.765 143.65ZM274.625 126.327H288.779V124.215C288.779 119.356 286.877 116.821 282.864 116.821C278.85 116.821 275.681 119.779 274.625 126.327ZM314.34 145.551L313.284 147.875H297.018V145.762L300.609 144.495V122.102L296.806 117.877V117.033L306.101 113.441H307.369L307.157 121.469H307.369C309.27 117.244 312.861 113.441 317.086 113.441C320.678 113.441 322.79 115.554 322.79 118.511C323.001 120.835 321.311 122.947 318.776 123.159H318.354C316.03 123.37 314.129 121.469 313.918 119.145V118.511C311.171 119.99 308.848 122.102 307.369 124.849V144.495L314.34 145.551ZM324.903 136.89C328.071 143.861 331.24 145.551 335.254 145.551C338.634 145.551 340.957 144.284 340.957 140.692C340.957 137.735 339.268 136.045 335.465 134.777L331.029 133.299C326.381 131.609 323.424 128.862 323.424 123.159C323.424 116.61 328.282 113.441 334.62 113.441C336.732 113.441 338.845 114.075 340.746 114.92L344.549 113.652L345.182 123.581L343.493 124.215C340.113 118.511 337.366 116.821 334.197 116.821C331.662 116.399 329.339 118.3 328.916 120.835V121.469C328.916 124.215 330.395 126.116 333.986 127.384L338.422 128.862C343.492 130.552 346.661 133.299 346.661 139.214C346.661 145.974 341.591 148.931 334.62 148.931C331.874 148.931 329.339 148.297 327.015 147.241L323.635 148.931L323.001 137.735L324.903 136.89ZM364.406 145.551L363.35 147.875H348.562V145.762L352.154 144.495V122.102L348.351 117.877V117.033L357.646 113.441H358.914V144.284L364.406 145.551ZM355.534 98.4425C358.069 98.4425 360.392 100.555 360.181 103.301C360.181 105.836 358.069 108.16 355.322 107.949C354.093 107.938 352.918 107.445 352.048 106.575C351.179 105.706 350.686 104.53 350.675 103.301C350.675 100.766 352.788 98.6537 355.534 98.4425C355.323 98.4425 355.323 98.4425 355.534 98.4425ZM362.082 115.765L371.8 105.202H373.279V114.286H384.475L383.841 117.877H373.068V137.946C373.068 142.171 374.969 144.072 378.137 144.072C380.25 144.072 382.574 143.439 384.475 142.383L385.32 144.284C382.574 147.241 378.771 148.72 374.757 148.509C369.687 148.509 366.307 145.763 366.307 139.003V117.877H361.871L362.082 115.765Z" fill="white"/>
    <path d="M384.475 118.3L381.095 116.188L381.729 114.075H396.094L396.728 116.399L391.869 117.666L397.361 132.242C398.599 135.366 399.45 138.63 399.896 141.96H400.107L403.065 132.031L407.713 117.877L402.643 116.188L403.065 113.864H415.318L415.74 116.188L412.149 117.666L401.375 147.241C396.516 160.339 392.503 164.564 386.165 164.564C382.151 164.564 380.039 162.24 380.039 159.283C379.996 158.724 380.067 158.163 380.248 157.633C380.428 157.103 380.716 156.616 381.091 156.201C381.467 155.786 381.923 155.451 382.432 155.218C382.941 154.986 383.493 154.859 384.053 154.846H384.475C385.476 154.821 386.448 155.179 387.194 155.846C387.94 156.513 388.403 157.44 388.489 158.438V158.86C388.489 159.705 388.278 160.761 387.644 161.395C390.813 161.395 394.826 155.691 396.939 149.142L384.475 118.3Z" fill="white"/>
    <g clip-path="url(#clip0_4_2)">
        <path d="M715.715 76.2612C718.25 72.8812 729.658 60.4175 751.839 62.53C773.598 64.8537 787.751 80.9087 786.906 100.344C785.428 133.51 750.36 138.369 747.403 114.709C753.318 125.271 767.26 121.046 773.175 115.554C779.935 109.216 784.371 94.64 776.766 82.1762C768.528 68.6562 756.486 65.4875 748.459 64.6425C725.221 61.8962 715.715 76.2612 715.715 76.2612Z" fill="#A2AD00"/>
        <path d="M727.756 64.6425C733.882 61.685 741.065 59.5725 749.726 59.3612C758.81 59.15 779.512 64.22 788.596 83.655C798.736 104.991 786.484 133.299 765.147 134.989C760.5 135.411 753.74 134.355 748.248 130.553C742.333 126.75 736.629 118.511 738.741 108.794C739.798 103.935 743.389 101.189 747.402 100.555C753.317 99.4988 757.754 104.991 754.162 111.54C753.529 112.596 767.049 113.441 771.485 102.034C774.02 95.485 772.752 84.0775 766.626 77.9513C747.402 59.15 715.293 70.7688 709.589 91.26C707.899 96.1188 707.688 102.034 707.688 102.034C707.688 126.961 727.756 147.03 752.684 147.03C777.611 147.03 797.68 126.75 797.68 102.034C797.891 77.3175 777.611 57.0375 752.684 57.0375C743.6 57.0375 734.727 59.995 727.756 64.6425Z" fill="#21578A"/>
        <path d="M840.986 97.5975C840.986 107.104 832.114 113.864 822.608 113.864H819.861V127.595H810.777V81.12H822.608C832.114 81.3312 840.986 88.0912 840.986 97.5975ZM819.861 104.78H822.608C827.255 104.78 831.691 102.245 831.691 97.5975C831.691 92.95 827.044 90.415 822.608 90.415H819.861V104.78Z" fill="#21578A"/>
        <path d="M876.899 124.215L869.505 128.651C868.026 127.595 866.336 125.271 865.703 124.426C865.703 124.426 862.111 129.074 855.774 129.074C849.225 129.074 842.676 124.215 842.676 117.033C842.676 109.428 849.647 104.569 858.097 104.569C859.365 104.569 862.111 104.569 862.111 104.569C862.111 101.189 860.21 99.0763 856.408 99.0763C854.718 99.0763 852.183 99.4987 850.07 100.977L847.113 94.0063C847.113 94.0063 850.915 91.0488 856.619 91.0488C866.125 91.0488 871.195 97.175 871.195 104.991V112.596C870.984 117.455 872.885 121.046 876.899 124.215ZM858.097 111.329C852.605 111.329 851.76 114.709 851.76 116.821C851.76 119.356 854.084 120.624 855.985 120.624C859.576 120.624 862.534 117.244 862.534 117.244C862.534 117.244 862.111 114.286 862.111 111.329C862.111 111.329 858.309 111.329 858.097 111.329Z" fill="#21578A"/>
        <path d="M908.375 97.5975L900.77 102.879C899.08 100.766 897.179 99.71 894.433 99.71C889.574 99.71 886.828 104.991 886.828 109.85C886.828 114.709 889.363 119.99 894.433 119.99C897.179 119.99 899.291 119.145 900.77 116.821L908.375 122.103C904.784 126.75 900.559 128.651 894.433 128.651C884.715 128.651 877.955 119.568 877.955 109.639C877.955 99.71 884.715 90.6263 894.433 90.6263C900.559 91.0488 904.784 92.7388 908.375 97.5975Z" fill="#21578A"/>
        <path d="M916.614 86.4012C913.656 86.4012 911.333 84.0775 911.333 81.12C911.333 78.1625 913.656 75.8387 916.614 75.8387C919.571 75.8387 921.895 78.1625 921.895 81.12C921.895 84.0775 919.571 86.4012 916.614 86.4012ZM911.966 127.806V92.105H920.839V127.595H911.966V127.806Z" fill="#21578A"/>
        <path d="M933.725 145.129L926.331 140.692C930.345 137.524 932.246 133.932 932.246 128.862V100.977H926.12V92.105H932.246V88.0913C932.246 80.4863 937.105 74.7825 944.499 73.0925L949.569 78.1625C944.71 79.0075 941.119 83.0212 941.119 88.0913V92.105H948.09V100.977H941.119V128.862C940.907 135.834 938.795 140.481 933.725 145.129Z" fill="#21578A"/>
        <path d="M957.385 86.4012C954.428 86.4012 952.104 84.0775 952.104 81.12C952.104 78.1625 954.428 75.8387 957.385 75.8387C960.343 75.8387 962.666 78.1625 962.666 81.12C962.666 84.0775 960.343 86.4012 957.385 86.4012ZM952.949 127.806V92.105H961.821V127.595H952.949V127.806Z" fill="#21578A"/>
        <path d="M997.522 97.5975L989.918 102.879C988.228 100.766 986.326 99.71 983.58 99.71C978.721 99.71 975.975 104.991 975.975 109.85C975.975 114.709 978.51 119.99 983.58 119.99C986.326 119.99 988.439 119.145 989.918 116.821L997.522 122.103C993.931 126.75 989.706 128.651 983.58 128.651C973.863 128.651 967.103 119.568 967.103 109.639C967.103 99.71 973.863 90.6263 983.58 90.6263C989.706 91.0488 993.931 92.7388 997.522 97.5975Z" fill="#21578A"/>
        <path d="M1002.17 92.95C1002.17 85.5563 1009.35 80.275 1016.54 80.275C1021.61 80.275 1025.41 81.965 1029 85.7675L1023.29 92.3163C1021.82 90.415 1019.92 88.9363 1016.75 88.9363C1013.58 88.9363 1011.47 90.8375 1011.47 93.1613C1011.47 95.9075 1014 96.9638 1016.75 98.6538L1019.49 100.132C1026.04 103.935 1030.27 106.681 1030.27 114.498C1030.27 122.525 1023.29 129.285 1014.84 129.285C1009.77 129.285 1005.76 128.018 1001.33 123.581L1007.45 116.188C1009.99 119.568 1012.52 120.835 1015.48 120.835C1018.65 120.835 1020.97 118.3 1020.97 115.343C1020.97 112.174 1018.65 110.695 1015.9 109.216L1013.16 107.738C1006.82 103.724 1002.17 101.189 1002.17 92.95Z" fill="#21578A"/>
        <path d="M1066.6 109.85C1066.6 119.779 1059.63 128.862 1049.7 128.862C1039.77 128.862 1032.8 119.99 1032.8 109.85C1032.8 99.9212 1039.77 90.8375 1049.7 90.8375C1059.63 91.0487 1066.6 99.9212 1066.6 109.85ZM1049.7 119.99C1054.77 119.99 1057.52 114.92 1057.52 109.85C1057.52 104.78 1054.56 99.71 1049.7 99.71C1044.63 99.71 1041.88 104.78 1041.88 109.85C1041.88 114.92 1044.84 119.99 1049.7 119.99Z" fill="#21578A"/>
        <path d="M1105.47 124.215L1098.08 128.651C1097.02 127.806 1093.64 123.581 1093.64 123.581C1093.64 123.581 1088.36 129.074 1082.02 129.074C1076.32 129.074 1070.62 124.637 1070.62 118.089V92.105H1079.49V113.864C1079.49 115.765 1079.49 119.779 1083.29 119.779C1089.63 119.779 1090.68 113.019 1090.68 113.019V92.105H1099.56V112.385C1099.56 117.455 1101.46 121.046 1105.47 124.215Z" fill="#21578A"/>
        <path d="M1117.51 127.806H1108.64V107.526C1108.64 102.456 1106.74 98.865 1102.73 95.6962L1110.12 91.26C1111.81 92.5275 1114.56 96.1188 1114.56 96.5413C1114.56 96.5413 1120.47 91.0488 1125.75 91.0488L1127.44 100.344C1122.58 100.133 1117.3 106.893 1117.3 106.893V127.806H1117.51Z" fill="#21578A"/>
        <path d="M1158.5 97.5975L1150.89 102.879C1149.2 100.766 1147.3 99.71 1144.55 99.71C1139.69 99.71 1136.95 104.991 1136.95 109.85C1136.95 114.709 1139.48 119.99 1144.55 119.99C1147.3 119.99 1149.41 119.145 1150.89 116.821L1158.5 122.103C1154.9 126.75 1150.68 128.651 1144.55 128.651C1134.84 128.651 1128.08 119.568 1128.08 109.639C1128.08 99.71 1134.84 90.6263 1144.55 90.6263C1150.68 91.0488 1154.9 92.7388 1158.5 97.5975Z" fill="#21578A"/>
        <path d="M1183.21 117.455L1188.07 122.314C1188.07 122.314 1183.42 128.862 1175.18 128.862C1165.26 128.862 1159.13 119.779 1159.13 109.85C1159.13 99.9212 1165.47 90.8375 1175.18 90.8375C1183 90.8375 1187.86 95.0625 1189.97 101.822C1185.96 110.272 1179.2 114.497 1169.9 114.497C1169.27 114.497 1168.64 114.497 1168.64 114.497C1168.85 115.554 1170.33 119.99 1175.18 119.99C1180.89 120.412 1183.21 117.455 1183.21 117.455ZM1180.89 102.034C1180.89 102.034 1178.99 99.71 1175.4 99.71C1169.27 99.71 1168.42 108.16 1168.42 108.16C1175.4 108.16 1178.35 106.047 1180.89 102.034Z" fill="#21578A"/>
        <path d="M1005.76 168.577H1003.23V147.452H1005.76V156.536H1014V147.452H1016.54V168.577H1014V159.071H1005.76V168.577Z" fill="#21578A"/>
        <path d="M1031.74 166.042V168.577H1021.82V147.452H1031.32V149.988H1024.35V156.325H1030.27V158.86H1024.35V166.042H1031.74Z" fill="#21578A"/>
        <path d="M1034.07 168.155L1041.67 147.452H1043.58L1051.18 168.155L1048.64 169L1046.96 163.93H1038.72L1037.03 169L1034.07 168.155ZM1039.14 161.395H1045.69L1042.31 151.889L1039.14 161.395Z" fill="#21578A"/>
        <path d="M1064.28 166.042V168.577H1054.56V147.452H1057.09V166.042H1064.28Z" fill="#21578A"/>
        <path d="M1071.67 168.577V149.988H1066.39V147.452H1079.49V149.988H1074.21V168.577H1071.67Z" fill="#21578A"/>
        <path d="M1085.83 168.577H1083.29V147.452H1085.83V156.536H1094.06V147.452H1096.6V168.577H1094.06V159.071H1085.83V168.577Z" fill="#21578A"/>
        <path d="M1122.37 154.635C1122.37 158.649 1118.78 161.606 1114.77 161.606H1112.65V168.577H1110.12V147.452H1114.77C1118.78 147.452 1122.37 150.41 1122.37 154.635ZM1112.65 159.071H1114.77C1117.3 159.071 1119.63 157.17 1119.63 154.635C1119.63 152.1 1117.3 150.199 1114.77 150.199H1112.65V159.071Z" fill="#21578A"/>
        <path d="M1135.89 166.042V168.577H1126.17V147.452H1128.71V166.042H1135.89Z" fill="#21578A"/>
        <path d="M1137.79 168.155L1145.4 147.452H1147.3L1154.9 168.155L1152.37 169L1150.68 163.93H1142.44L1140.75 169L1137.79 168.155ZM1143.07 161.395H1149.62L1146.24 151.889L1143.07 161.395Z" fill="#21578A"/>
        <path d="M1161.03 152.523V168.577H1158.49V147.452H1161.03L1170.75 163.508V147.452H1173.28V168.577H1170.75L1161.03 152.523Z" fill="#21578A"/>
        <path d="M1177.93 152.523C1177.93 149.354 1180.89 147.03 1183.84 147.03C1185.75 147.03 1187.44 147.664 1188.7 149.142L1187.01 151.044C1186.38 150.199 1185.11 149.354 1183.84 149.354C1182.15 149.354 1180.68 150.621 1180.68 152.311C1180.68 154.001 1181.94 154.846 1183.63 155.903L1184.9 156.536C1187.01 157.804 1189.34 159.283 1189.34 162.451C1189.34 165.831 1186.59 168.578 1183.21 168.578C1180.68 168.578 1178.78 167.31 1177.72 165.831L1179.83 163.719C1180.68 165.409 1182.16 166.042 1183.63 166.042C1185.32 166.042 1186.8 164.564 1186.8 162.663C1186.8 160.973 1185.75 160.128 1183.84 158.86L1182.58 158.226C1180.04 157.381 1177.93 155.691 1177.93 152.523Z" fill="#21578A"/>
    </g>
    <path d="M595.25 74.75C594.419 74.75 593.586 75.0676 592.952 75.7021C591.683 76.9713 591.683 79.0287 592.952 80.2979L604.466 91.8125L592.952 103.327C591.683 104.596 591.683 106.654 592.952 107.923C593.586 108.557 594.419 108.875 595.25 108.875C596.081 108.875 596.914 108.557 597.548 107.923L609.062 96.4082L620.577 107.923C621.844 109.192 623.904 109.192 625.173 107.923C626.442 106.653 626.442 104.597 625.173 103.327L613.658 91.8125L625.173 80.2979C626.442 79.0287 626.442 76.9713 625.173 75.7021C623.905 74.4338 621.844 74.433 620.577 75.7021L609.062 87.2168L597.548 75.7021C596.914 75.0684 596.081 74.75 595.25 74.75Z" fill="white"/>
    <defs>
        <clipPath id="clip0_4_2">
            <rect width="483.763" height="111.963" fill="white" transform="translate(707.688 57.0375)"/>
        </clipPath>
    </defs>
</svg>
