<svg width="229" height="53" viewBox="0 0 229 53" fill="none" xmlns="http://www.w3.org/2000/svg">
    <path d="M3.79999 9.09999C4.99999 7.49999 10.4 1.59999 20.9 2.59999C31.2 3.69999 37.9 11.3 37.5 20.5C36.8 36.2 20.2 38.5 18.8 27.3C21.6 32.3 28.2 30.3 31 27.7C34.2 24.7 36.3 17.8 32.7 11.9C28.8 5.49999 23.1 3.99999 19.3 3.59999C8.29999 2.29999 3.79999 9.09999 3.79999 9.09999Z" fill="#A2AD00"/>
    <path d="M9.5 3.6C12.4 2.2 15.8 1.2 19.9 1.1C24.2 1 34 3.4 38.3 12.6C43.1 22.7 37.3 36.1 27.2 36.9C25 37.1 21.8 36.6 19.2 34.8C16.4 33 13.7 29.1 14.7 24.5C15.2 22.2 16.9 20.9 18.8 20.6C21.6 20.1 23.7 22.7 22 25.8C21.7 26.3 28.1 26.7 30.2 21.3C31.4 18.2 30.8 12.8 27.9 9.9C18.8 1 3.6 6.5 0.9 16.2C0.1 18.5 0 21.3 0 21.3C0 33.1 9.5 42.6 21.3 42.6C33.1 42.6 42.6 33 42.6 21.3C42.7 9.6 33.1 0 21.3 0C17 0 12.8 1.4 9.5 3.6Z" fill="#21578A"/>
    <path d="M63.1 19.2C63.1 23.7 58.9 26.9 54.4 26.9H53.1V33.4H48.8V11.4H54.4C58.9 11.5 63.1 14.7 63.1 19.2ZM53.1 22.6H54.4C56.6 22.6 58.7 21.4 58.7 19.2C58.7 17 56.5 15.8 54.4 15.8H53.1V22.6Z" fill="#21578A"/>
    <path d="M80.1 31.8L76.6 33.9C75.9 33.4 75.1 32.3 74.8 31.9C74.8 31.9 73.1 34.1 70.1 34.1C67 34.1 63.9 31.8 63.9 28.4C63.9 24.8 67.2 22.5 71.2 22.5C71.8 22.5 73.1 22.5 73.1 22.5C73.1 20.9 72.2 19.9 70.4 19.9C69.6 19.9 68.4 20.1 67.4 20.8L66 17.5C66 17.5 67.8 16.1 70.5 16.1C75 16.1 77.4 19 77.4 22.7V26.3C77.3 28.6 78.2 30.3 80.1 31.8ZM71.2 25.7C68.6 25.7 68.2 27.3 68.2 28.3C68.2 29.5 69.3 30.1 70.2 30.1C71.9 30.1 73.3 28.5 73.3 28.5C73.3 28.5 73.1 27.1 73.1 25.7C73.1 25.7 71.3 25.7 71.2 25.7Z" fill="#21578A"/>
    <path d="M95 19.2L91.4 21.7C90.6 20.7 89.7 20.2 88.4 20.2C86.1 20.2 84.8 22.7 84.8 25C84.8 27.3 86 29.8 88.4 29.8C89.7 29.8 90.7 29.4 91.4 28.3L95 30.8C93.3 33 91.3 33.9 88.4 33.9C83.8 33.9 80.6 29.6 80.6 24.9C80.6 20.2 83.8 15.9 88.4 15.9C91.3 16.1 93.3 16.9 95 19.2Z" fill="#21578A"/>
    <path d="M98.9 13.9C97.5 13.9 96.4 12.8 96.4 11.4C96.4 9.99999 97.5 8.89999 98.9 8.89999C100.3 8.89999 101.4 9.99999 101.4 11.4C101.4 12.8 100.3 13.9 98.9 13.9ZM96.7 33.5V16.6H100.9V33.4H96.7V33.5Z" fill="#21578A"/>
    <path d="M107 41.7L103.5 39.6C105.4 38.1 106.3 36.4 106.3 34V20.8H103.4V16.6H106.3V14.7C106.3 11.1 108.6 8.40001 112.1 7.60001L114.5 10C112.2 10.4 110.5 12.3 110.5 14.7V16.6H113.8V20.8H110.5V34C110.4 37.3 109.4 39.5 107 41.7Z" fill="#21578A"/>
    <path d="M118.2 13.9C116.8 13.9 115.7 12.8 115.7 11.4C115.7 9.99999 116.8 8.89999 118.2 8.89999C119.6 8.89999 120.7 9.99999 120.7 11.4C120.7 12.8 119.6 13.9 118.2 13.9ZM116.1 33.5V16.6H120.3V33.4H116.1V33.5Z" fill="#21578A"/>
    <path d="M137.2 19.2L133.6 21.7C132.8 20.7 131.9 20.2 130.6 20.2C128.3 20.2 127 22.7 127 25C127 27.3 128.2 29.8 130.6 29.8C131.9 29.8 132.9 29.4 133.6 28.3L137.2 30.8C135.5 33 133.5 33.9 130.6 33.9C126 33.9 122.8 29.6 122.8 24.9C122.8 20.2 126 15.9 130.6 15.9C133.5 16.1 135.5 16.9 137.2 19.2Z" fill="#21578A"/>
    <path d="M139.4 17C139.4 13.5 142.8 11 146.2 11C148.6 11 150.4 11.8 152.1 13.6L149.4 16.7C148.7 15.8 147.8 15.1 146.3 15.1C144.8 15.1 143.8 16 143.8 17.1C143.8 18.4 145 18.9 146.3 19.7L147.6 20.4C150.7 22.2 152.7 23.5 152.7 27.2C152.7 31 149.4 34.2 145.4 34.2C143 34.2 141.1 33.6 139 31.5L141.9 28C143.1 29.6 144.3 30.2 145.7 30.2C147.2 30.2 148.3 29 148.3 27.6C148.3 26.1 147.2 25.4 145.9 24.7L144.6 24C141.6 22.1 139.4 20.9 139.4 17Z" fill="#21578A"/>
    <path d="M169.9 25C169.9 29.7 166.6 34 161.9 34C157.2 34 153.9 29.8 153.9 25C153.9 20.3 157.2 16 161.9 16C166.6 16.1 169.9 20.3 169.9 25ZM161.9 29.8C164.3 29.8 165.6 27.4 165.6 25C165.6 22.6 164.2 20.2 161.9 20.2C159.5 20.2 158.2 22.6 158.2 25C158.2 27.4 159.6 29.8 161.9 29.8Z" fill="#21578A"/>
    <path d="M188.3 31.8L184.8 33.9C184.3 33.5 182.7 31.5 182.7 31.5C182.7 31.5 180.2 34.1 177.2 34.1C174.5 34.1 171.8 32 171.8 28.9V16.6H176V26.9C176 27.8 176 29.7 177.8 29.7C180.8 29.7 181.3 26.5 181.3 26.5V16.6H185.5V26.2C185.5 28.6 186.4 30.3 188.3 31.8Z" fill="#21578A"/>
    <path d="M194 33.5H189.8V23.9C189.8 21.5 188.9 19.8 187 18.3L190.5 16.2C191.3 16.8 192.6 18.5 192.6 18.7C192.6 18.7 195.4 16.1 197.9 16.1L198.7 20.5C196.4 20.4 193.9 23.6 193.9 23.6V33.5H194Z" fill="#21578A"/>
    <path d="M213.4 19.2L209.8 21.7C209 20.7 208.1 20.2 206.8 20.2C204.5 20.2 203.2 22.7 203.2 25C203.2 27.3 204.4 29.8 206.8 29.8C208.1 29.8 209.1 29.4 209.8 28.3L213.4 30.8C211.7 33 209.7 33.9 206.8 33.9C202.2 33.9 199 29.6 199 24.9C199 20.2 202.2 15.9 206.8 15.9C209.7 16.1 211.7 16.9 213.4 19.2Z" fill="#21578A"/>
    <path d="M225.1 28.6L227.4 30.9C227.4 30.9 225.2 34 221.3 34C216.6 34 213.7 29.7 213.7 25C213.7 20.3 216.7 16 221.3 16C225 16 227.3 18 228.3 21.2C226.4 25.2 223.2 27.2 218.8 27.2C218.5 27.2 218.2 27.2 218.2 27.2C218.3 27.7 219 29.8 221.3 29.8C224 30 225.1 28.6 225.1 28.6ZM224 21.3C224 21.3 223.1 20.2 221.4 20.2C218.5 20.2 218.1 24.2 218.1 24.2C221.4 24.2 222.8 23.2 224 21.3Z" fill="#21578A"/>
    <path d="M141.1 52.8H139.9V42.8H141.1V47.1H145V42.8H146.2V52.8H145V48.3H141.1V52.8Z" fill="#21578A"/>
    <path d="M153.4 51.6V52.8H148.7V42.8H153.2V44H149.9V47H152.7V48.2H149.9V51.6H153.4Z" fill="#21578A"/>
    <path d="M154.5 52.6L158.1 42.8H159L162.6 52.6L161.4 53L160.6 50.6H156.7L155.9 53L154.5 52.6ZM156.9 49.4H160L158.4 44.9L156.9 49.4Z" fill="#21578A"/>
    <path d="M168.8 51.6V52.8H164.2V42.8H165.4V51.6H168.8Z" fill="#21578A"/>
    <path d="M172.3 52.8V44H169.8V42.8H176V44H173.5V52.8H172.3Z" fill="#21578A"/>
    <path d="M179 52.8H177.8V42.8H179V47.1H182.9V42.8H184.1V52.8H182.9V48.3H179V52.8Z" fill="#21578A"/>
    <path d="M196.3 46.2C196.3 48.1 194.6 49.5 192.7 49.5H191.7V52.8H190.5V42.8H192.7C194.6 42.8 196.3 44.2 196.3 46.2ZM191.7 48.3H192.7C193.9 48.3 195 47.4 195 46.2C195 45 193.9 44.1 192.7 44.1H191.7V48.3Z" fill="#21578A"/>
    <path d="M202.7 51.6V52.8H198.1V42.8H199.3V51.6H202.7Z" fill="#21578A"/>
    <path d="M203.6 52.6L207.2 42.8H208.1L211.7 52.6L210.5 53L209.7 50.6H205.8L205 53L203.6 52.6ZM206.1 49.4H209.2L207.6 44.9L206.1 49.4Z" fill="#21578A"/>
    <path d="M214.6 45.2V52.8H213.4V42.8H214.6L219.2 50.4V42.8H220.4V52.8H219.2L214.6 45.2Z" fill="#21578A"/>
    <path d="M222.6 45.2C222.6 43.7 224 42.6 225.4 42.6C226.3 42.6 227.1 42.9 227.7 43.6L226.9 44.5C226.6 44.1 226 43.7 225.4 43.7C224.6 43.7 223.9 44.3 223.9 45.1C223.9 45.9 224.5 46.3 225.3 46.8L225.9 47.1C226.9 47.7 228 48.4 228 49.9C228 51.5 226.7 52.8 225.1 52.8C223.9 52.8 223 52.2 222.5 51.5L223.5 50.5C223.9 51.3 224.6 51.6 225.3 51.6C226.1 51.6 226.8 50.9 226.8 50C226.8 49.2 226.3 48.8 225.4 48.2L224.8 47.9C223.6 47.5 222.6 46.7 222.6 45.2Z" fill="#21578A"/>
</svg>
